Bahianita.ufo
<glyph name="hyphen" format="1">
  <advance width="339"/>
  <unicode hex="002D"/>
  <outline>
    <contour>
      <point x="13" y="308" type="line"/>
      <point x="328" y="308" type="line"/>
      <point x="328" y="357" type="line"/>
      <point x="10" y="366" type="line"/>
    </contour>
  </outline>
</glyph>
<glyph name="one" format="1">
  <advance width="339"/>
  <unicode hex="0031"/>
  <outline>
    <contour>
      <point x="37" y="0" type="line"/>
      <point x="318" y="0" type="line"/>
      <point x="318" y="67" type="line"/>
      <point x="223" y="67" type="line"/>
      <point x="223" y="711" type="line"/>
      <point x="53" y="711" type="line"/>
      <point x="53" y="669" type="line"/>
      <point x="68" y="638" type="line"/>
      <point x="148" y="638" type="line"/>
      <point x="141" y="67" type="line"/>
      <point x="37" y="67" type="line"/>
    </contour>
  </outline>
</glyph>
<glyph name="nine" format="1">
  <advance width="339"/>
  <unicode hex="0039"/>
  <outline>
    <contour>
      <point x="64" y="0" type="line"/>
      <point x="237" y="0" type="line"/>
      <point x="237" y="0"/>
      <point x="291" y="57"/>
      <point x="291" y="57" type="curve"/>
      <point x="290" y="663" type="line"/>
      <point x="290" y="663"/>
      <point x="235" y="710"/>
      <point x="235" y="710" type="curve"/>
      <point x="101" y="710" type="line"/>
      <point x="101" y="710"/>
      <point x="49" y="663"/>
      <point x="49" y="663" type="curve"/>
      <point x="49" y="357" type="line"/>
      <point x="49" y="357"/>
      <point x="111" y="304"/>
      <point x="111" y="304" type="curve"/>
      <point x="221" y="305" type="line"/>
      <point x="215" y="76" type="line"/>
      <point x="132" y="65" type="line"/>
      <point x="110" y="162" type="line"/>
      <point x="64" y="162" type="line"/>
    </contour>
    <contour>
      <point x="128" y="374" type="line"/>
      <point x="120" y="381" type="line"/>
      <point x="120" y="631" type="line"/>
      <point x="128" y="641" type="line"/>
      <point x="213" y="642" type="line"/>
      <point x="221" y="634" type="line"/>
      <point x="221" y="374" type="line"/>
    </contour>
  </outline>
</glyph>
<glyph name="equal" format="1">
  <advance width="339"/>
  <unicode hex="003D"/>
  <outline>
    <contour>
      <point x="20" y="379" type="line"/>
      <point x="315" y="389" type="line"/>
      <point x="318" y="448" type="line"/>
      <point x="20" y="448" type="line"/>
    </contour>
    <contour>
      <point x="20" y="222" type="line"/>
      <point x="314" y="222" type="line"/>
      <point x="318" y="290" type="line"/>
      <point x="23" y="281" type="line"/>
    </contour>
  </outline>
</glyph>
<glyph name="I" format="1">
  <advance width="163"/>
  <unicode hex="0049"/>
  <outline>
    <contour>
      <point x="44" y="0" type="line"/>
      <point x="118" y="0" type="line"/>
      <point x="127" y="710" type="line"/>
      <point x="26" y="710" type="line"/>
      <point x="26" y="664" type="line"/>
      <point x="44" y="616" type="line"/>
    </contour>
    <contour>
      <point x="84" y="0" type="move" name="bottom"/>
    </contour>
    <contour>
      <point x="108" y="0" type="move" name="ogonek"/>
    </contour>
    <contour>
      <point x="79" y="710" type="move" name="top"/>
    </contour>
    <contour>
      <point x="20" y="710" type="move" name="topleft"/>
    </contour>
  </outline>
</glyph>
<glyph name="J" format="1">
  <advance width="286"/>
  <unicode hex="004A"/>
  <outline>
    <contour>
      <point x="56" y="0" type="line"/>
      <point x="237" y="0" type="line"/>
      <point x="246" y="710" type="line"/>
      <point x="150" y="710" type="line"/>
      <point x="150" y="664" type="line"/>
      <point x="168" y="616" type="line"/>
      <point x="168" y="49" type="line"/>
      <point x="104" y="54" type="line"/>
      <point x="99" y="192" type="line"/>
      <point x="20" y="172" type="line"/>
    </contour>
    <contour>
      <point x="192" y="0" type="move" name="bottom"/>
    </contour>
    <contour>
      <point x="199" y="710" type="move" name="top"/>
    </contour>
  </outline>
</glyph>
<glyph name="L" format="1">
  <advance width="245"/>
  <unicode hex="004C"/>
  <outline>
    <contour>
      <point x="40" y="0" type="line"/>
      <point x="229" y="0" type="line"/>
      <point x="229" y="64" type="line"/>
      <point x="116" y="82" type="line"/>
      <point x="137" y="710" type="line"/>
      <point x="40" y="710" type="line"/>
    </contour>
    <contour>
      <point x="124" y="0" type="move" name="bottom"/>
    </contour>
    <contour>
      <point x="206" y="375" type="move" name="center"/>
    </contour>
    <contour>
      <point x="88" y="710" type="move" name="top"/>
    </contour>
    <contour>
      <point x="165" y="500" type="move" name="topright"/>
    </contour>
  </outline>
</glyph>
<glyph name="M" format="1">
  <advance width="340"/>
  <unicode hex="004D"/>
  <outline>
    <contour>
      <point x="24" y="-20" type="line"/>
      <point x="76" y="-20" type="line"/>
      <point x="76" y="610" type="line"/>
      <point x="80" y="610" type="line"/>
      <point x="151" y="181" type="line"/>
      <point x="181" y="181" type="line"/>
      <point x="268" y="661" type="line"/>
      <point x="272" y="661" type="line"/>
      <point x="250" y="0" type="line"/>
      <point x="316" y="0" type="line"/>
      <point x="316" y="730" type="line"/>
      <point x="219" y="730" type="line"/>
      <point x="172" y="332" type="line"/>
      <point x="166" y="332" type="line"/>
      <point x="114" y="710" type="line"/>
      <point x="24" y="710" type="line"/>
    </contour>
  </outline>
</glyph>
<glyph name="O" format="1">
  <advance width="298"/>
  <unicode hex="004F"/>
  <outline>
    <contour>
      <point x="99" y="0" type="line"/>
      <point x="195" y="0" type="line"/>
      <point x="258" y="36" type="line"/>
      <point x="258" y="682" type="line"/>
      <point x="218" y="710" type="line"/>
      <point x="83" y="710" type="line"/>
      <point x="40" y="678" type="line"/>
      <point x="40" y="42" type="line"/>
    </contour>
    <contour>
      <point x="130" y="70" type="line" smooth="yes"/>
      <point x="124" y="70"/>
      <point x="121" y="72"/>
      <point x="121" y="76" type="curve" smooth="yes"/>
      <point x="121" y="649" type="line" smooth="yes"/>
      <point x="121" y="655"/>
      <point x="124" y="658"/>
      <point x="130" y="658" type="curve" smooth="yes"/>
      <point x="182" y="658" type="line" smooth="yes"/>
      <point x="188" y="658"/>
      <point x="191" y="655"/>
      <point x="191" y="649" type="curve"/>
      <point x="181" y="76" type="line" smooth="yes"/>
      <point x="181" y="72"/>
      <point x="178" y="70"/>
      <point x="172" y="70" type="curve" smooth="yes"/>
    </contour>
    <contour>
      <point x="148" y="0" type="move" name="bottom"/>
    </contour>
    <contour>
      <point x="149" y="355" type="move" name="center"/>
    </contour>
    <contour>
      <point x="195" y="0" type="move" name="ogonek"/>
    </contour>
    <contour>
      <point x="150" y="710" type="move" name="top"/>
    </contour>
    <contour>
      <point x="20" y="710" type="move" name="topleft"/>
    </contour>
    <contour>
      <point x="218" y="710" type="move" name="topright"/>
    </contour>
  </outline>
</glyph>
<glyph name="P" format="1">
  <advance width="290"/>
  <unicode hex="0050"/>
  <outline>
    <contour>
      <point x="44" y="0" type="line"/>
      <point x="102" y="0" type="line"/>
      <point x="102" y="306" type="line"/>
      <point x="155" y="306" type="line"/>
      <point x="248" y="306"/>
      <point x="258" y="367"/>
      <point x="258" y="379" type="curve"/>
      <point x="258" y="661" type="line"/>
      <point x="258" y="688"/>
      <point x="219" y="710"/>
      <point x="168" y="710" type="curve"/>
      <point x="22" y="710" type="line"/>
      <point x="22" y="681" type="line"/>
      <point x="44" y="669" type="line"/>
    </contour>
    <contour>
      <point x="128" y="365" type="line"/>
      <point x="121" y="365"/>
      <point x="116" y="370"/>
      <point x="116" y="373" type="curve"/>
      <point x="116" y="658" type="line"/>
      <point x="116" y="663"/>
      <point x="120" y="665"/>
      <point x="128" y="665" type="curve"/>
      <point x="145" y="665" type="line"/>
      <point x="176" y="665"/>
      <point x="186" y="648"/>
      <point x="187" y="633" type="curve"/>
      <point x="177" y="381" type="line"/>
      <point x="177" y="377"/>
      <point x="175" y="376"/>
      <point x="171" y="375" type="curve"/>
    </contour>
  </outline>
</glyph>
<glyph name="U" format="1">
  <advance width="290"/>
  <unicode hex="0055"/>
  <outline>
    <contour>
      <point x="40" y="0" type="line"/>
      <point x="207" y="0" type="line" smooth="yes"/>
      <point x="226" y="0"/>
      <point x="250" y="21"/>
      <point x="250" y="40" type="curve"/>
      <point x="250" y="710" type="line"/>
      <point x="166" y="710" type="line"/>
      <point x="187" y="63" type="line"/>
      <point x="100" y="69" type="line"/>
      <point x="100" y="687" type="line"/>
      <point x="40" y="687" type="line"/>
    </contour>
    <contour>
      <point x="146" y="0" type="move" name="bottom"/>
    </contour>
    <contour>
      <point x="183" y="0" type="move" name="ogonek"/>
    </contour>
    <contour>
      <point x="143" y="710" type="move" name="top"/>
    </contour>
    <contour>
      <point x="250" y="710" type="move" name="topright"/>
    </contour>
  </outline>
</glyph>
<glyph name="backslash" format="1">
  <advance width="246"/>
  <unicode hex="005C"/>
  <outline>
    <contour>
      <point x="158" y="-14" type="line"/>
      <point x="216" y="0" type="line"/>
      <point x="81" y="720" type="line"/>
      <point x="30" y="710" type="line"/>
    </contour>
  </outline>
</glyph>
<glyph name="asciicircum" format="1">
  <advance width="370"/>
  <unicode hex="005E"/>
  <outline>
    <contour>
      <point x="59" y="277" type="line"/>
      <point x="187" y="420" type="line"/>
      <point x="311" y="277" type="line"/>
      <point x="340" y="296" type="line"/>
      <point x="207" y="487" type="line"/>
      <point x="167" y="490" type="line"/>
      <point x="30" y="296" type="line"/>
    </contour>
  </outline>
</glyph>
<glyph name="underscore" format="1">
  <advance width="411"/>
  <unicode hex="005F"/>
  <outline>
    <contour>
      <point x="49" y="-113" type="line"/>
      <point x="360" y="-102" type="line"/>
      <point x="363" y="-45" type="line"/>
      <point x="49" y="-40" type="line"/>
    </contour>
  </outline>
</glyph>
<glyph name="d" format="1">
  <advance width="294"/>
  <unicode hex="0064"/>
  <outline>
    <contour>
      <point x="98" y="0" type="curve" smooth="yes"/>
      <point x="246" y="0" type="line"/>
      <point x="251" y="721" type="line"/>
      <point x="176" y="721" type="line"/>
      <point x="180" y="582" type="line"/>
      <point x="87" y="582" type="line" smooth="yes"/>
      <point x="63" y="582"/>
      <point x="45" y="563"/>
      <point x="45" y="528" type="curve" smooth="yes"/>
      <point x="47" y="36" type="line" smooth="yes"/>
      <point x="47" y="12"/>
      <point x="58" y="0"/>
    </contour>
    <contour>
      <point x="127" y="63" type="line" smooth="yes"/>
      <point x="118" y="63"/>
      <point x="118" y="65"/>
      <point x="118" y="69" type="curve"/>
      <point x="108" y="511" type="line"/>
      <point x="108" y="517"/>
      <point x="108" y="520"/>
      <point x="117" y="520" type="curve" smooth="yes"/>
      <point x="169" y="520" type="line" smooth="yes"/>
      <point x="174" y="520"/>
      <point x="178" y="517"/>
      <point x="178" y="511" type="curve" smooth="yes"/>
      <point x="178" y="69" type="line" smooth="yes"/>
      <point x="178" y="65"/>
      <point x="178" y="63"/>
      <point x="169" y="63" type="curve" smooth="yes"/>
    </contour>
    <contour>
      <point x="148" y="0" type="move" name="bottom"/>
    </contour>
    <contour>
      <point x="141" y="582" type="move" name="top"/>
    </contour>
  </outline>
</glyph>
<glyph name="e" format="1">
  <advance width="281"/>
  <unicode hex="0065"/>
  <outline>
    <contour>
      <point x="96" y="0" type="curve" smooth="yes"/>
      <point x="240" y="0" type="line"/>
      <point x="240" y="122" type="line"/>
      <point x="197" y="122" type="line"/>
      <point x="180" y="56" type="line"/>
      <point x="121" y="57" type="line" smooth="yes"/>
      <point x="115" y="57"/>
      <point x="113" y="61"/>
      <point x="113" y="65" type="curve" smooth="yes"/>
      <point x="114" y="263" type="line"/>
      <point x="202" y="258" type="line"/>
      <point x="243" y="290" type="line"/>
      <point x="243" y="531" type="line" smooth="yes"/>
      <point x="243" y="556"/>
      <point x="226" y="582"/>
      <point x="200" y="582" type="curve" smooth="yes"/>
      <point x="96" y="582" type="line" smooth="yes"/>
      <point x="65" y="582"/>
      <point x="45" y="570"/>
      <point x="45" y="538" type="curve" smooth="yes"/>
      <point x="45" y="36" type="line" smooth="yes"/>
      <point x="45" y="13"/>
      <point x="65" y="0"/>
    </contour>
    <contour>
      <point x="111" y="318" type="line"/>
      <point x="106" y="515" type="line" smooth="yes"/>
      <point x="106" y="521"/>
      <point x="106" y="524"/>
      <point x="115" y="524" type="curve" smooth="yes"/>
      <point x="173" y="524" type="line"/>
      <point x="178" y="524"/>
      <point x="182" y="521"/>
      <point x="182" y="515" type="curve" smooth="yes"/>
      <point x="176" y="329" type="line" smooth="yes"/>
      <point x="176" y="318"/>
      <point x="172" y="318"/>
      <point x="167" y="318" type="curve" smooth="yes"/>
    </contour>
    <contour>
      <point x="144" y="0" type="move" name="bottom"/>
    </contour>
    <contour>
      <point x="240" y="0" type="move" name="ogonek"/>
    </contour>
    <contour>
      <point x="148" y="582" type="move" name="top"/>
    </contour>
  </outline>
</glyph>
<glyph name="f" format="1">
  <advance width="193"/>
  <unicode hex="0066"/>
  <outline>
    <contour>
      <point x="42" y="0" type="line"/>
      <point x="113" y="0" type="line"/>
      <point x="108" y="522" type="line"/>
      <point x="201" y="529" type="line"/>
      <point x="201" y="582" type="line"/>
      <point x="107" y="582" type="line"/>
      <point x="109" y="645" type="line"/>
      <point x="223" y="655" type="line"/>
      <point x="223" y="710" type="line"/>
      <point x="85" y="710" type="line" smooth="yes"/>
      <point x="59" y="710"/>
      <point x="42" y="692"/>
      <point x="42" y="661" type="curve" smooth="yes"/>
      <point x="43" y="582" type="line"/>
      <point x="3" y="582" type="line"/>
      <point x="3" y="522" type="line"/>
      <point x="44" y="522" type="line"/>
    </contour>
  </outline>
</glyph>
<glyph name="g" format="1">
  <advance width="282"/>
  <unicode hex="0067"/>
  <outline>
    <contour>
      <point x="71" y="-129" type="line"/>
      <point x="227" y="-129" type="line" smooth="yes"/>
      <point x="260" y="-129"/>
      <point x="272" y="-96"/>
      <point x="271" y="-58" type="curve" smooth="yes"/>
      <point x="267" y="36" type="line"/>
      <point x="234" y="82" type="line"/>
      <point x="116" y="82" type="line"/>
      <point x="116" y="148" type="line"/>
      <point x="204" y="150" type="line"/>
      <point x="244" y="198" type="line"/>
      <point x="240" y="561" type="line"/>
      <point x="250" y="635" type="line"/>
      <point x="209" y="635" type="line"/>
      <point x="186" y="582" type="line"/>
      <point x="97" y="582" type="line" smooth="yes"/>
      <point x="69" y="582"/>
      <point x="40" y="565"/>
      <point x="41" y="536" type="curve" smooth="yes"/>
      <point x="45" y="174" type="line"/>
      <point x="67" y="149" type="line"/>
      <point x="67" y="82" type="line"/>
      <point x="67" y="82"/>
      <point x="22" y="80"/>
      <point x="21" y="40" type="curve" smooth="yes"/>
      <point x="17" y="-84" type="line"/>
    </contour>
    <contour>
      <point x="198" y="-72" type="curve" smooth="yes"/>
      <point x="81" y="-71" type="line"/>
      <point x="83" y="25" type="line" smooth="yes"/>
      <point x="83" y="30"/>
      <point x="87" y="32"/>
      <point x="91" y="32" type="curve" smooth="yes"/>
      <point x="192" y="27" type="line" smooth="yes"/>
      <point x="198" y="27"/>
      <point x="201" y="22"/>
      <point x="201" y="18" type="curve" smooth="yes"/>
      <point x="206" y="-63" type="line" smooth="yes"/>
      <point x="206" y="-68"/>
      <point x="204" y="-72"/>
    </contour>
    <contour>
      <point x="179" y="202" type="line"/>
      <point x="111" y="204" type="line" smooth="yes"/>
      <point x="107" y="204"/>
      <point x="104" y="207"/>
      <point x="104" y="211" type="curve" smooth="yes"/>
      <point x="104" y="514" type="line" smooth="yes"/>
      <point x="104" y="518"/>
      <point x="107" y="520"/>
      <point x="109" y="520" type="curve" smooth="yes"/>
      <point x="173" y="528" type="line" smooth="yes"/>
      <point x="178" y="529"/>
      <point x="180" y="527"/>
      <point x="180" y="523" type="curve" smooth="yes"/>
    </contour>
    <contour>
      <point x="146" y="-100" type="move" name="bottom"/>
    </contour>
    <contour>
      <point x="141" y="582" type="move" name="top"/>
    </contour>
  </outline>
</glyph>
<glyph name="o" format="1">
  <advance width="298"/>
  <unicode hex="006F"/>
  <outline>
    <contour>
      <point x="104" y="0" type="line"/>
      <point x="190" y="0" type="line"/>
      <point x="253" y="36" type="line"/>
      <point x="253" y="554" type="line"/>
      <point x="213" y="582" type="line"/>
      <point x="88" y="582" type="line"/>
      <point x="45" y="550" type="line"/>
      <point x="45" y="42" type="line"/>
    </contour>
    <contour>
      <point x="121" y="63" type="line" smooth="yes"/>
      <point x="112" y="63"/>
      <point x="112" y="65"/>
      <point x="112" y="69" type="curve" smooth="yes"/>
      <point x="112" y="521" type="line" smooth="yes"/>
      <point x="112" y="527"/>
      <point x="116" y="530"/>
      <point x="121" y="530" type="curve" smooth="yes"/>
      <point x="183" y="530" type="line" smooth="yes"/>
      <point x="192" y="530"/>
      <point x="192" y="527"/>
      <point x="192" y="521" type="curve"/>
      <point x="182" y="69" type="line" smooth="yes"/>
      <point x="182" y="65"/>
      <point x="182" y="63"/>
      <point x="173" y="63" type="curve" smooth="yes"/>
    </contour>
    <contour>
      <point x="150" y="0" type="move" name="bottom"/>
    </contour>
    <contour>
      <point x="149" y="291" type="move" name="center"/>
    </contour>
    <contour>
      <point x="178" y="0" type="move" name="ogonek"/>
    </contour>
    <contour>
      <point x="155" y="582" type="move" name="top"/>
    </contour>
    <contour>
      <point x="213" y="582" type="move" name="topright"/>
    </contour>
  </outline>
</glyph>
<glyph name="p" format="1">
  <advance width="286"/>
  <unicode hex="0070"/>
  <outline>
    <contour>
      <point x="45" y="-129" type="curve"/>
      <point x="104" y="-129" type="line"/>
      <point x="109" y="1" type="line"/>
      <point x="126" y="-1"/>
      <point x="148" y="-3"/>
      <point x="175" y="-3" type="curve" smooth="yes"/>
      <point x="212" y="-3"/>
      <point x="241" y="18"/>
      <point x="241" y="45" type="curve" smooth="yes"/>
      <point x="237" y="526" type="line" smooth="yes"/>
      <point x="237" y="558"/>
      <point x="224" y="582"/>
      <point x="190" y="582" type="curve"/>
      <point x="46" y="582" type="line"/>
      <point x="46" y="582"/>
      <point x="45" y="-129"/>
    </contour>
    <contour>
      <point x="164" y="55" type="line"/>
      <point x="106" y="61" type="line"/>
      <point x="115" y="525" type="line"/>
      <point x="124" y="531" type="line"/>
      <point x="170" y="528" type="line" smooth="yes"/>
      <point x="179" y="527"/>
      <point x="179" y="525"/>
      <point x="179" y="522" type="curve" smooth="yes"/>
      <point x="173" y="64" type="line"/>
    </contour>
  </outline>
</glyph>
<glyph name="u" format="1">
  <advance width="298"/>
  <unicode hex="0075"/>
  <outline>
    <contour>
      <point x="88" y="0" type="line"/>
      <point x="213" y="0" type="line"/>
      <point x="253" y="28" type="line"/>
      <point x="253" y="582" type="line"/>
      <point x="182" y="582" type="line"/>
      <point x="192" y="67" type="line" smooth="yes"/>
      <point x="192" y="61"/>
      <point x="192" y="58"/>
      <point x="183" y="58" type="curve" smooth="yes"/>
      <point x="121" y="58" type="line" smooth="yes"/>
      <point x="116" y="58"/>
      <point x="112" y="61"/>
      <point x="112" y="67" type="curve" smooth="yes"/>
      <point x="112" y="583" type="line"/>
      <point x="73" y="583" type="line"/>
      <point x="45" y="550" type="line"/>
      <point x="45" y="32" type="line"/>
    </contour>
    <contour>
      <point x="153" y="0" type="move" name="bottom"/>
    </contour>
    <contour>
      <point x="202" y="0" type="move" name="ogonek"/>
    </contour>
    <contour>
      <point x="151" y="582" type="move" name="top"/>
    </contour>
    <contour>
      <point x="233" y="582" type="move" name="topright"/>
    </contour>
  </outline>
</glyph>
<glyph name="w" format="1">
  <advance width="370"/>
  <unicode hex="0077"/>
  <outline>
    <contour>
      <point x="73" y="-25" type="line"/>
      <point x="127" y="-25" type="line"/>
      <point x="186" y="359" type="line"/>
      <point x="245" y="-1" type="line"/>
      <point x="299" y="-1" type="line"/>
      <point x="362" y="605" type="line"/>
      <point x="285" y="605" type="line"/>
      <point x="275" y="121" type="line"/>
      <point x="264" y="121" type="line"/>
      <point x="216" y="473" type="line"/>
      <point x="156" y="473" type="line"/>
      <point x="108" y="97" type="line"/>
      <point x="97" y="97" type="line"/>
      <point x="87" y="581" type="line"/>
      <point x="10" y="581" type="line"/>
    </contour>
    <contour>
      <point x="183" y="0" type="move" name="bottom"/>
    </contour>
    <contour>
      <point x="183" y="582" type="move" name="top"/>
    </contour>
  </outline>
</glyph>
<glyph name="section" format="1">
  <advance width="311"/>
  <unicode hex="00A7"/>
  <outline>
    <contour>
      <point x="40" y="-235" type="line"/>
      <point x="183" y="-235" type="line" smooth="yes"/>
      <point x="212" y="-235"/>
      <point x="244" y="-203"/>
      <point x="247" y="-175" type="curve"/>
      <point x="271" y="113" type="line"/>
      <point x="239" y="120" type="line"/>
      <point x="264" y="415" type="line"/>
      <point x="107" y="421" type="line"/>
      <point x="133" y="640" type="line"/>
      <point x="182" y="647" type="line"/>
      <point x="202" y="569" type="line"/>
      <point x="239" y="569" type="line"/>
      <point x="244" y="710" type="line"/>
      <point x="98" y="710" type="line"/>
      <point x="58" y="686" type="line"/>
      <point x="47" y="376" type="line"/>
      <point x="77" y="369" type="line"/>
      <point x="50" y="91" type="line"/>
      <point x="179" y="61" type="line"/>
      <point x="179" y="-167" type="line"/>
      <point x="40" y="-167" type="line"/>
    </contour>
    <contour>
      <point x="171" y="136" type="line"/>
      <point x="130" y="146" type="line"/>
      <point x="145" y="355" type="line"/>
      <point x="192" y="346" type="line"/>
    </contour>
  </outline>
</glyph>
<glyph name="guillemetleft" format="1">
  <advance width="478"/>
  <unicode hex="00AB"/>
  <outline>
    <contour>
      <point x="381" y="96" type="line"/>
      <point x="438" y="151" type="line"/>
      <point x="295" y="351" type="line"/>
      <point x="295" y="355" type="line"/>
      <point x="436" y="518" type="line"/>
      <point x="374" y="573" type="line"/>
      <point x="217" y="355" type="line"/>
      <point x="219" y="335" type="line"/>
    </contour>
    <contour>
      <point x="188" y="96" type="line"/>
      <point x="250" y="151" type="line"/>
      <point x="109" y="344" type="line"/>
      <point x="109" y="348" type="line"/>
      <point x="252" y="518" type="line"/>
      <point x="195" y="573" type="line"/>
      <point x="33" y="344" type="line"/>
      <point x="31" y="318" type="line"/>
    </contour>
  </outline>
</glyph>
<glyph name="softhyphen" format="1">
  <advance width="298"/>
  <unicode hex="00AD"/>
  <outline>
    <contour>
      <point x="13" y="308" type="line"/>
      <point x="288" y="308" type="line"/>
      <point x="288" y="357" type="line"/>
      <point x="10" y="366" type="line"/>
    </contour>
  </outline>
</glyph>
<glyph name="cedilla" format="1">
  <advance width="291"/>
  <unicode hex="00B8"/>
  <outline>
    <contour>
      <point x="40" y="-208" type="line"/>
      <point x="160" y="-208" type="line" smooth="yes"/>
      <point x="192" y="-208"/>
      <point x="216" y="-191"/>
      <point x="225" y="-155" type="curve" smooth="yes"/>
      <point x="251" y="-45" type="line"/>
      <point x="139" y="-45" type="line"/>
      <point x="179" y="32" type="line"/>
      <point x="114" y="53" type="line"/>
      <point x="74" y="-89" type="line"/>
      <point x="179" y="-97" type="line"/>
      <point x="169" y="-150" type="line"/>
      <point x="40" y="-150" type="line"/>
    </contour>
  </outline>
</glyph>
<glyph name="guillemetright" format="1">
  <advance width="478"/>
  <unicode hex="00BB"/>
  <outline>
    <contour>
      <point x="290" y="96" type="line"/>
      <point x="447" y="318" type="line"/>
      <point x="445" y="344" type="line"/>
      <point x="283" y="573" type="line"/>
      <point x="226" y="518" type="line"/>
      <point x="369" y="348" type="line"/>
      <point x="369" y="344" type="line"/>
      <point x="228" y="151" type="line"/>
    </contour>
    <contour>
      <point x="97" y="96" type="line"/>
      <point x="259" y="335" type="line"/>
      <point x="261" y="355" type="line"/>
      <point x="104" y="573" type="line"/>
      <point x="42" y="518" type="line"/>
      <point x="183" y="355" type="line"/>
      <point x="183" y="351" type="line"/>
      <point x="40" y="151" type="line"/>
    </contour>
  </outline>
</glyph>
<glyph name="onehalf" format="1">
  <advance width="449"/>
  <unicode hex="00BD"/>
  <outline>
    <contour>
      <point x="73" y="-2" type="line"/>
      <point x="429" y="679" type="line"/>
      <point x="395" y="707" type="line"/>
      <point x="34" y="33" type="line"/>
    </contour>
    <contour>
      <point x="259" y="0" type="line"/>
      <point x="417" y="0" type="line"/>
      <point x="417" y="47" type="line"/>
      <point x="327" y="58" type="line"/>
      <point x="406" y="158" type="line"/>
      <point x="413" y="325" type="line"/>
      <point x="313" y="325" type="line"/>
      <point x="276" y="277" type="line"/>
      <point x="276" y="191" type="line"/>
      <point x="310" y="193" type="line"/>
      <point x="320" y="274" type="line"/>
      <point x="362" y="274" type="line"/>
      <point x="357" y="179" type="line"/>
      <point x="267" y="54" type="line"/>
    </contour>
    <contour>
      <point x="20" y="395" type="line"/>
      <point x="170" y="395" type="line"/>
      <point x="164" y="449" type="line"/>
      <point x="117" y="447" type="line"/>
      <point x="117" y="710" type="line"/>
      <point x="87" y="710" type="line"/>
      <point x="22" y="679" type="line"/>
      <point x="22" y="652" type="line"/>
      <point x="73" y="649" type="line"/>
      <point x="65" y="444" type="line"/>
      <point x="20" y="444" type="line"/>
    </contour>
  </outline>
</glyph>
<glyph name="Thorn" format="1">
  <advance width="296"/>
  <unicode hex="00DE"/>
  <outline>
    <contour>
      <point x="40" y="0" type="line"/>
      <point x="98" y="0" type="line"/>
      <point x="98" y="186" type="line"/>
      <point x="161" y="186" type="line"/>
      <point x="254" y="186"/>
      <point x="264" y="247"/>
      <point x="264" y="259" type="curve"/>
      <point x="264" y="531" type="line"/>
      <point x="264" y="558"/>
      <point x="225" y="580"/>
      <point x="174" y="580" type="curve"/>
      <point x="101" y="580" type="line"/>
      <point x="91" y="710" type="line"/>
      <point x="40" y="710" type="line"/>
    </contour>
    <contour>
      <point x="124" y="237" type="line"/>
      <point x="117" y="237"/>
      <point x="112" y="242"/>
      <point x="112" y="245" type="curve"/>
      <point x="112" y="520" type="line"/>
      <point x="112" y="525"/>
      <point x="116" y="527"/>
      <point x="124" y="527" type="curve"/>
      <point x="151" y="527" type="line"/>
      <point x="182" y="527"/>
      <point x="192" y="510"/>
      <point x="193" y="495" type="curve"/>
      <point x="183" y="253" type="line"/>
      <point x="183" y="249"/>
      <point x="181" y="248"/>
      <point x="177" y="247" type="curve"/>
    </contour>
  </outline>
</glyph>
<glyph name="germandbls" format="1">
  <advance width="412"/>
  <unicode hex="00DF"/>
  <outline>
    <contour>
      <point x="44" y="-1" type="line"/>
      <point x="126" y="-1" type="line"/>
      <point x="105" y="616" type="line"/>
      <point x="201" y="640" type="line"/>
      <point x="226" y="602" type="line"/>
      <point x="160" y="389" type="line"/>
      <point x="186" y="326" type="line"/>
      <point x="295" y="296" type="line"/>
      <point x="295" y="68" type="line"/>
      <point x="233" y="84" type="line"/>
      <point x="241" y="171" type="line"/>
      <point x="174" y="171" type="line"/>
      <point x="186" y="0" type="line"/>
      <point x="289" y="0" type="line" smooth="yes"/>
      <point x="318" y="0"/>
      <point x="360" y="32"/>
      <point x="363" y="60" type="curve"/>
      <point x="363" y="365" type="line"/>
      <point x="228" y="379" type="line"/>
      <point x="227" y="384" type="line"/>
      <point x="330" y="601" type="line"/>
      <point x="218" y="710" type="line"/>
      <point x="145" y="710" type="line"/>
      <point x="44" y="640" type="line"/>
    </contour>
  </outline>
</glyph>
<glyph name="eth" format="1">
  <advance width="292"/>
  <unicode hex="00F0"/>
  <outline>
    <contour>
      <point x="98" y="0" type="line"/>
      <point x="185" y="0" type="line"/>
      <point x="248" y="36" type="line"/>
      <point x="250" y="550" type="line"/>
      <point x="209" y="721" type="line"/>
      <point x="152" y="721" type="line"/>
      <point x="140" y="710" type="line"/>
      <point x="177" y="582" type="line"/>
      <point x="87" y="582" type="line"/>
      <point x="43" y="528" type="line"/>
      <point x="41" y="39" type="line"/>
    </contour>
    <contour>
      <point x="127" y="63" type="line" smooth="yes"/>
      <point x="118" y="63"/>
      <point x="118" y="65"/>
      <point x="118" y="69" type="curve"/>
      <point x="108" y="511" type="line"/>
      <point x="108" y="517"/>
      <point x="108" y="520"/>
      <point x="117" y="520" type="curve" smooth="yes"/>
      <point x="169" y="520" type="line" smooth="yes"/>
      <point x="174" y="520"/>
      <point x="178" y="517"/>
      <point x="178" y="511" type="curve" smooth="yes"/>
      <point x="178" y="69" type="line" smooth="yes"/>
      <point x="178" y="65"/>
      <point x="178" y="63"/>
      <point x="169" y="63" type="curve" smooth="yes"/>
    </contour>
    <component base="baraccent" xScale="0.9925" xyScale="0.1219" yScale="0.9925" yxScale="-0.1219" xOffset="89" yOffset="274"/>
  </outline>
</glyph>
<glyph name="oslash" format="1">
  <advance width="298"/>
  <unicode hex="00F8"/>
  <outline>
    <contour>
      <point x="61" y="-63" type="line"/>
      <point x="80.658" y="0.399" type="line"/>
      <point x="190" y="0" type="line"/>
      <point x="253" y="36" type="line"/>
      <point x="253" y="552.86" type="line"/>
      <point x="278" y="633" type="line"/>
      <point x="241" y="649" type="line"/>
      <point x="219.384" y="582" type="line"/>
      <point x="88" y="582" type="line"/>
      <point x="45" y="550" type="line"/>
      <point x="45" y="42" type="line"/>
      <point x="17" y="-46" type="line"/>
    </contour>
    <contour>
      <point x="121" y="63" type="line" smooth="yes"/>
      <point x="112" y="63"/>
      <point x="112" y="65"/>
      <point x="112" y="69" type="curve" smooth="yes"/>
      <point x="112" y="100.869" type="line"/>
      <point x="188.102" y="344.823" type="line"/>
      <point x="182" y="69" type="line" smooth="yes"/>
      <point x="182" y="65"/>
      <point x="182" y="63"/>
      <point x="173" y="63" type="curve" smooth="yes"/>
    </contour>
    <contour>
      <point x="112" y="249.158" type="line"/>
      <point x="112" y="521" type="line"/>
      <point x="112" y="527"/>
      <point x="116" y="530"/>
      <point x="121" y="530" type="curve" smooth="yes"/>
      <point x="183" y="530" type="line" smooth="yes"/>
      <point x="192" y="530"/>
      <point x="192" y="527"/>
      <point x="192" y="521" type="curve" smooth="yes"/>
      <point x="191.433" y="495.364" type="line"/>
    </contour>
    <contour>
      <point x="148" y="0" type="move" name="bottom"/>
    </contour>
    <contour>
      <point x="151" y="582" type="move" name="top"/>
    </contour>
  </outline>
</glyph>
<glyph name="lslash" format="1">
  <advance width="209"/>
  <unicode hex="0142"/>
  <outline>
    <contour>
      <point x="27" y="277" type="line"/>
      <point x="214" y="409" type="line"/>
      <point x="185" y="453" type="line"/>
      <point x="-7" y="325" type="line"/>
    </contour>
    <component base="l" xOffset="20"/>
  </outline>
</glyph>
<glyph name="Eng" format="1">
  <advance width="343"/>
  <unicode hex="014A"/>
  <outline>
    <contour>
      <point x="174" y="-149" type="line"/>
      <point x="290" y="-108" type="line"/>
      <point x="316" y="29" type="line"/>
      <point x="324" y="710" type="line"/>
      <point x="238" y="710" type="line"/>
      <point x="238" y="664" type="line"/>
      <point x="256" y="616" type="line"/>
      <point x="256" y="313" type="line"/>
      <point x="252" y="313" type="line"/>
      <point x="140" y="710" type="line"/>
      <point x="24" y="710" type="line"/>
      <point x="24" y="0" type="line"/>
      <point x="83" y="0" type="line"/>
      <point x="83" y="651" type="line"/>
      <point x="87" y="651" type="line"/>
      <point x="256" y="158" type="line"/>
      <point x="256" y="-47" type="line"/>
      <point x="159" y="-71" type="line"/>
    </contour>
  </outline>
</glyph>
<glyph name="dotaccent" format="1">
  <advance width="153"/>
  <unicode hex="02D9"/>
  <outline>
    <contour>
      <point x="34" y="638" type="line"/>
      <point x="123" y="641" type="line"/>
      <point x="123" y="736" type="line"/>
      <point x="30" y="736" type="line"/>
    </contour>
  </outline>
</glyph>
<glyph name="ring" format="1">
  <advance width="199"/>
  <unicode hex="02DA"/>
  <outline>
    <contour>
      <point x="30" y="639" type="line"/>
      <point x="144" y="639" type="line"/>
      <point x="169" y="665" type="line"/>
      <point x="169" y="774" type="line"/>
      <point x="30" y="774" type="line"/>
    </contour>
    <contour>
      <point x="79" y="674" type="line" smooth="yes"/>
      <point x="75" y="674"/>
      <point x="73" y="675"/>
      <point x="73" y="678" type="curve" smooth="yes"/>
      <point x="73" y="744" type="line" smooth="yes"/>
      <point x="73" y="746"/>
      <point x="76" y="747"/>
      <point x="81" y="747" type="curve"/>
      <point x="121" y="742" type="line"/>
      <point x="125" y="740"/>
      <point x="127" y="738"/>
      <point x="127" y="736" type="curve" smooth="yes"/>
      <point x="127" y="680" type="line" smooth="yes"/>
      <point x="127" y="676"/>
      <point x="125" y="674"/>
      <point x="120" y="674" type="curve"/>
    </contour>
    <contour>
      <point x="100" y="582" type="move" name="_top"/>
    </contour>
    <contour>
      <point x="100" y="762" type="move" name="top"/>
    </contour>
  </outline>
</glyph>
<glyph name="gravecomb" format="1">
  <advance width="130"/>
  <unicode hex="0300"/>
  <outline>
    <component base="grave" xOffset="-20"/>
    <contour>
      <point x="75" y="582" type="move" name="_top"/>
    </contour>
    <contour>
      <point x="75" y="762" type="move" name="top"/>
    </contour>
  </outline>
</glyph>
<glyph name="acutecomb" format="1">
  <advance width="130"/>
  <unicode hex="0301"/>
  <outline>
    <component base="acute" xOffset="-20"/>
    <contour>
      <point x="56" y="582" type="move" name="_top"/>
    </contour>
    <contour>
      <point x="56" y="762" type="move" name="top"/>
    </contour>
  </outline>
</glyph>
<glyph name="hungarumlautcomb" format="1">
  <advance width="240"/>
  <unicode hex="030B"/>
  <outline>
    <component base="acute" xOffset="-20"/>
    <component base="acute" xOffset="90"/>
    <contour>
      <point x="105" y="582" type="move" name="_top"/>
    </contour>
    <contour>
      <point x="105" y="762" type="move" name="top"/>
    </contour>
  </outline>
</glyph>
<glyph name="cedillacomb" format="1">
  <advance width="199"/>
  <unicode hex="0327"/>
  <outline>
    <contour>
      <point x="0" y="-208" type="line"/>
      <point x="123" y="-208" type="line" smooth="yes"/>
      <point x="152" y="-208"/>
      <point x="187" y="-176"/>
      <point x="187" y="-148" type="curve"/>
      <point x="199" y="-45" type="line"/>
      <point x="99" y="-45" type="line"/>
      <point x="139" y="32" type="line"/>
      <point x="74" y="53" type="line"/>
      <point x="34" y="-89" type="line"/>
      <point x="139" y="-97" type="line"/>
      <point x="129" y="-150" type="line"/>
      <point x="0" y="-150" type="line"/>
    </contour>
    <contour>
      <point x="106" y="0" type="move" name="_bottom"/>
    </contour>
    <contour>
      <point x="106" y="-226" type="move" name="bottom"/>
    </contour>
  </outline>
</glyph>
<glyph name="strokeshortcomb" format="1">
  <advance width="400"/>
  <unicode hex="0335"/>
  <outline>
    <contour>
      <point x="3" y="286" type="line"/>
      <point x="400" y="295" type="line"/>
      <point x="400" y="350" type="line"/>
      <point x="0" y="350" type="line"/>
    </contour>
    <contour>
      <point x="200" y="318" type="move" name="_center"/>
    </contour>
  </outline>
</glyph>
<glyph name="Germandbls" format="1">
  <advance width="393"/>
  <unicode hex="1E9E"/>
  <outline>
    <contour>
      <point x="44" y="-1" type="line"/>
      <point x="126" y="-1" type="line"/>
      <point x="105" y="616" type="line"/>
      <point x="191" y="650" type="line"/>
      <point x="223" y="628" type="line"/>
      <point x="150" y="459" type="line"/>
      <point x="176" y="396" type="line"/>
      <point x="285" y="276" type="line"/>
      <point x="275" y="78" type="line"/>
      <point x="172" y="64" type="line"/>
      <point x="176" y="0" type="line"/>
      <point x="279" y="0" type="line"/>
      <point x="353" y="80" type="line"/>
      <point x="353" y="345" type="line"/>
      <point x="218" y="449" type="line"/>
      <point x="217" y="454" type="line"/>
      <point x="320" y="710" type="line"/>
      <point x="135" y="710" type="line"/>
      <point x="44" y="640" type="line"/>
    </contour>
  </outline>
</glyph>
<glyph name="quotedblbase" format="1">
  <advance width="348"/>
  <unicode hex="201E"/>
  <outline>
    <contour>
      <point x="239" y="-144" type="line"/>
      <point x="294" y="-18" type="line"/>
      <point x="299" y="92" type="line"/>
      <point x="200" y="87" type="line"/>
      <point x="237" y="-18" type="line"/>
      <point x="190" y="-127" type="line"/>
    </contour>
    <contour>
      <point x="92" y="-144" type="line"/>
      <point x="147" y="-18" type="line"/>
      <point x="152" y="92" type="line"/>
      <point x="53" y="87" type="line"/>
      <point x="90" y="-18" type="line"/>
      <point x="43" y="-127" type="line"/>
    </contour>
  </outline>
</glyph>
<glyph name="minute" format="1">
  <advance width="182"/>
  <unicode hex="2032"/>
  <outline>
    <contour>
      <point x="92" y="478" type="line"/>
      <point x="133" y="616" type="line"/>
      <point x="140" y="714" type="line"/>
      <point x="61" y="718" type="line"/>
      <point x="43" y="486" type="line"/>
    </contour>
  </outline>
</glyph>
<glyph name="lira" format="1">
  <advance width="339"/>
  <unicode hex="20A4"/>
  <outline>
    <contour>
      <point x="32" y="0" type="line"/>
      <point x="307" y="0" type="line"/>
      <point x="307" y="64" type="line"/>
      <point x="161" y="82" type="line"/>
      <point x="189" y="172" type="line"/>
      <point x="188" y="256" type="line"/>
      <point x="275" y="256" type="line"/>
      <point x="279" y="314" type="line"/>
      <point x="179" y="317" type="line"/>
      <point x="174" y="375" type="line"/>
      <point x="290" y="375" type="line"/>
      <point x="296" y="434" type="line"/>
      <point x="165" y="439" type="line"/>
      <point x="133" y="642" type="line"/>
      <point x="157" y="651" type="line"/>
      <point x="234" y="651" type="line" smooth="yes"/>
      <point x="242" y="651"/>
      <point x="246" y="648"/>
      <point x="246" y="642" type="curve"/>
      <point x="256" y="529" type="line"/>
      <point x="302" y="529" type="line"/>
      <point x="318" y="654" type="line"/>
      <point x="318" y="710" type="line"/>
      <point x="148" y="710" type="line" smooth="yes"/>
      <point x="96" y="710"/>
      <point x="68" y="685"/>
      <point x="68" y="654" type="curve"/>
      <point x="95" y="442" type="line"/>
      <point x="38" y="444" type="line"/>
      <point x="38" y="376" type="line"/>
      <point x="102" y="376" type="line"/>
      <point x="107" y="315" type="line"/>
      <point x="40" y="313" type="line"/>
      <point x="37" y="256" type="line"/>
      <point x="114" y="256" type="line"/>
      <point x="115" y="166" type="line"/>
      <point x="75" y="71" type="line"/>
      <point x="32" y="43" type="line"/>
    </contour>
  </outline>
</glyph>
<glyph name="naira" format="1">
  <advance width="404"/>
  <unicode hex="20A6"/>
  <outline>
    <contour>
      <point x="48" y="0" type="line"/>
      <point x="107" y="0" type="line"/>
      <point x="107" y="651" type="line"/>
      <point x="111" y="651" type="line"/>
      <point x="213" y="0" type="line"/>
      <point x="328" y="0" type="line"/>
      <point x="333" y="343" type="line"/>
      <point x="401" y="339" type="line"/>
      <point x="404" y="398" type="line"/>
      <point x="334" y="398" type="line"/>
      <point x="338" y="710" type="line"/>
      <point x="280" y="710" type="line"/>
      <point x="258" y="58" type="line"/>
      <point x="254" y="58" type="line"/>
      <point x="164" y="710" type="line"/>
      <point x="48" y="710" type="line"/>
      <point x="48" y="402" type="line"/>
      <point x="-17" y="400" type="line"/>
      <point x="-17" y="345" type="line"/>
      <point x="48" y="341" type="line"/>
    </contour>
  </outline>
</glyph>
<glyph name="won" format="1">
  <advance width="435"/>
  <unicode hex="20A9"/>
  <outline>
    <contour>
      <point x="83" y="0" type="line"/>
      <point x="188" y="0" type="line"/>
      <point x="220" y="483" type="line"/>
      <point x="224" y="483" type="line"/>
      <point x="281" y="0" type="line"/>
      <point x="387" y="0" type="line"/>
      <point x="420" y="710" type="line"/>
      <point x="359" y="710" type="line"/>
      <point x="341" y="23" type="line"/>
      <point x="336" y="23" type="line"/>
      <point x="249" y="575" type="line"/>
      <point x="255" y="697" type="line"/>
      <point x="198" y="697" type="line"/>
      <point x="134" y="37" type="line"/>
      <point x="130" y="37" type="line"/>
      <point x="79" y="709" type="line"/>
      <point x="14" y="709" type="line"/>
    </contour>
    <contour>
      <point x="90" y="329" type="line"/>
      <point x="90" y="378" type="line"/>
      <point x="0" y="378" type="line"/>
      <point x="0" y="339" type="line"/>
    </contour>
    <contour>
      <point x="379" y="330" type="line"/>
      <point x="443" y="330" type="line"/>
      <point x="443" y="374" type="line"/>
      <point x="379" y="384" type="line"/>
    </contour>
  </outline>
</glyph>
<glyph name="dong" format="1">
  <advance width="294"/>
  <unicode hex="20AB"/>
  <outline>
    <contour>
      <point x="98" y="114" type="curve" smooth="yes"/>
      <point x="246" y="114" type="line"/>
      <point x="251" y="721" type="line"/>
      <point x="176" y="721" type="line"/>
      <point x="180" y="582" type="line"/>
      <point x="87" y="582" type="line" smooth="yes"/>
      <point x="63" y="582"/>
      <point x="45" y="563"/>
      <point x="45" y="528" type="curve" smooth="yes"/>
      <point x="47" y="150" type="line" smooth="yes"/>
      <point x="47" y="126"/>
      <point x="58" y="114"/>
    </contour>
    <contour>
      <point x="39" y="20" type="line"/>
      <point x="255" y="20" type="line"/>
      <point x="255" y="78" type="line"/>
      <point x="36" y="68" type="line"/>
    </contour>
    <contour>
      <point x="126" y="177" type="line" smooth="yes"/>
      <point x="117" y="177"/>
      <point x="117" y="179"/>
      <point x="117" y="183" type="curve"/>
      <point x="108" y="511" type="line"/>
      <point x="108" y="517"/>
      <point x="108" y="520"/>
      <point x="117" y="520" type="curve" smooth="yes"/>
      <point x="173" y="520" type="line" smooth="yes"/>
      <point x="178" y="520"/>
      <point x="182" y="517"/>
      <point x="182" y="511" type="curve" smooth="yes"/>
      <point x="177" y="183" type="line" smooth="yes"/>
      <point x="177" y="179"/>
      <point x="177" y="177"/>
      <point x="168" y="177" type="curve" smooth="yes"/>
    </contour>
    <contour>
      <point x="89" y="620" type="line"/>
      <point x="285" y="620" type="line"/>
      <point x="285" y="678" type="line"/>
      <point x="86" y="668" type="line"/>
    </contour>
  </outline>
</glyph>
<glyph name="cedi" format="1">
  <advance width="339"/>
  <unicode hex="20B5"/>
  <outline>
    <contour>
      <point x="208" y="-89" type="line"/>
      <point x="203" y="20" type="line"/>
      <point x="296" y="20" type="line"/>
      <point x="296" y="187" type="line"/>
      <point x="270" y="187" type="line"/>
      <point x="244" y="167" type="line"/>
      <point x="244" y="99" type="line"/>
      <point x="244" y="95"/>
      <point x="240" y="93"/>
      <point x="232" y="93" type="curve"/>
      <point x="128" y="93" type="line"/>
      <point x="124" y="93"/>
      <point x="122" y="95"/>
      <point x="122" y="99" type="curve"/>
      <point x="122" y="567" type="line"/>
      <point x="122" y="600"/>
      <point x="122" y="630"/>
      <point x="155" y="640" type="curve"/>
      <point x="222" y="660" type="line"/>
      <point x="230" y="660"/>
      <point x="234" y="657"/>
      <point x="234" y="651" type="curve"/>
      <point x="234" y="548" type="line"/>
      <point x="280" y="548" type="line"/>
      <point x="296" y="710" type="line"/>
      <point x="218" y="710" type="line"/>
      <point x="213" y="811" type="line"/>
      <point x="165" y="811" type="line"/>
      <point x="165" y="710" type="line"/>
      <point x="129" y="710" type="line"/>
      <point x="85" y="710"/>
      <point x="63" y="680"/>
      <point x="62" y="653" type="curve"/>
      <point x="42" y="62" type="line"/>
      <point x="83" y="20" type="line"/>
      <point x="154" y="20" type="line"/>
      <point x="154" y="-87" type="line"/>
    </contour>
  </outline>
</glyph>
<glyph name="numero" format="1">
  <advance width="631"/>
  <unicode hex="2116"/>
  <outline>
    <contour>
      <point x="24" y="0" type="line"/>
      <point x="83" y="0" type="line"/>
      <point x="83" y="651" type="line"/>
      <point x="87" y="651" type="line"/>
      <point x="189" y="0" type="line"/>
      <point x="304" y="0" type="line"/>
      <point x="314" y="710" type="line"/>
      <point x="256" y="710" type="line"/>
      <point x="234" y="58" type="line"/>
      <point x="230" y="58" type="line"/>
      <point x="140" y="710" type="line"/>
      <point x="24" y="710" type="line"/>
    </contour>
    <contour>
      <point x="370" y="221" type="line"/>
      <point x="589" y="222" type="line"/>
      <point x="586" y="275" type="line"/>
      <point x="370" y="270" type="line"/>
    </contour>
    <contour>
      <point x="436" y="318" type="line"/>
      <point x="522" y="318" type="line"/>
      <point x="585" y="354" type="line"/>
      <point x="585" y="682" type="line"/>
      <point x="545" y="710" type="line"/>
      <point x="420" y="710" type="line"/>
      <point x="377" y="678" type="line"/>
      <point x="377" y="360" type="line"/>
    </contour>
    <contour>
      <point x="448" y="381" type="line" smooth="yes"/>
      <point x="439" y="381"/>
      <point x="439" y="383"/>
      <point x="439" y="387" type="curve" smooth="yes"/>
      <point x="434" y="649" type="line" smooth="yes"/>
      <point x="434" y="655"/>
      <point x="438" y="658"/>
      <point x="443" y="658" type="curve" smooth="yes"/>
      <point x="518" y="658" type="line" smooth="yes"/>
      <point x="527" y="658"/>
      <point x="527" y="655"/>
      <point x="527" y="649" type="curve"/>
      <point x="519" y="387" type="line" smooth="yes"/>
      <point x="519" y="383"/>
      <point x="519" y="381"/>
      <point x="510" y="381" type="curve" smooth="yes"/>
    </contour>
  </outline>
</glyph>
<glyph name="rightArrow" format="1">
  <advance width="512"/>
  <unicode hex="2192"/>
  <note>
    arrowright
  </note>
  <outline>
    <contour>
      <point x="306" y="164" type="line"/>
      <point x="472" y="363" type="line"/>
      <point x="480" y="395" type="line"/>
      <point x="298" y="594" type="line"/>
      <point x="258" y="559" type="line"/>
      <point x="371" y="421" type="line"/>
      <point x="374" y="406" type="line"/>
      <point x="28" y="413" type="line"/>
      <point x="32" y="349" type="line"/>
      <point x="383" y="353" type="line"/>
      <point x="385" y="343" type="line"/>
      <point x="247" y="206" type="line"/>
    </contour>
  </outline>
</glyph>
<glyph name="northEastArrow" format="1">
  <advance width="509"/>
  <unicode hex="2197"/>
  <note>
    uni2197
  </note>
  <outline>
    <contour>
      <point x="114" y="191" type="line"/>
      <point x="377" y="462" type="line"/>
      <point x="386" y="456" type="line"/>
      <point x="376" y="277" type="line"/>
      <point x="393" y="264" type="line"/>
      <point x="440" y="275" type="line"/>
      <point x="435" y="532" type="line"/>
      <point x="418" y="560" type="line"/>
      <point x="145" y="563" type="line"/>
      <point x="142" y="510" type="line"/>
      <point x="321" y="501" type="line"/>
      <point x="330" y="493" type="line"/>
      <point x="66" y="233" type="line"/>
    </contour>
  </outline>
</glyph>
<glyph name="infinity" format="1">
  <advance width="396"/>
  <unicode hex="221E"/>
  <outline>
    <contour>
      <point x="316" y="229" type="line"/>
      <point x="370" y="273" type="line"/>
      <point x="381" y="426" type="line"/>
      <point x="343" y="461" type="line"/>
      <point x="224" y="471" type="line"/>
      <point x="194" y="410" type="line"/>
      <point x="149" y="470" type="line"/>
      <point x="25" y="470" type="line"/>
      <point x="15" y="325" type="line"/>
      <point x="53" y="251" type="line"/>
      <point x="146" y="256" type="line"/>
      <point x="187" y="322" type="line"/>
      <point x="233" y="246" type="line"/>
    </contour>
    <contour>
      <point x="60" y="305" type="line"/>
      <point x="75" y="408" type="line"/>
      <point x="157" y="398" type="line"/>
      <point x="171" y="361" type="line"/>
      <point x="144" y="305" type="line"/>
    </contour>
    <contour>
      <point x="330" y="300" type="line"/>
      <point x="238" y="321" type="line"/>
      <point x="214" y="367" type="line"/>
      <point x="239" y="407" type="line"/>
      <point x="338" y="398" type="line"/>
    </contour>
  </outline>
</glyph>
<glyph name="Black_Right_Pointing_Small" format="1">
  <advance width="392"/>
  <unicode hex="25B8"/>
  <note>
    Black_Right-Pointing_Small
  </note>
  <outline>
    <contour>
      <point x="67" y="146" type="line"/>
      <point x="374" y="352" type="line"/>
      <point x="358" y="383" type="line"/>
      <point x="58" y="561" type="line"/>
      <point x="40" y="550" type="line"/>
      <point x="49" y="156" type="line"/>
    </contour>
  </outline>
</glyph>
<glyph name="Black_Left-Pointing_Triangle" format="1">
  <advance width="600"/>
  <unicode hex="25C0"/>
  <note>
    Black_Left-Pointing_Triangle
  </note>
  <outline>
    <contour>
      <point x="509" y="42" type="line"/>
      <point x="536" y="57" type="line"/>
      <point x="550" y="648" type="line"/>
      <point x="522" y="665" type="line"/>
      <point x="72" y="397" type="line"/>
      <point x="48" y="351" type="line"/>
    </contour>
  </outline>
</glyph>
<glyph name="White_Left_Pointing_Triangle" format="1">
  <advance width="620"/>
  <unicode hex="25C1"/>
  <note>
    White_Left-Pointing_Triangle
  </note>
  <outline>
    <contour>
      <point x="509" y="42" type="line"/>
      <point x="536" y="57" type="line"/>
      <point x="550" y="648" type="line"/>
      <point x="522" y="665" type="line"/>
      <point x="72" y="397" type="line"/>
      <point x="48" y="351" type="line"/>
    </contour>
    <contour>
      <point x="484" y="129" type="line"/>
      <point x="122" y="362" type="line"/>
      <point x="120" y="369" type="line"/>
      <point x="489" y="582" type="line"/>
    </contour>
  </outline>
</glyph>
<glyph name="Black_Left_Pointing_Small" format="1">
  <advance width="392"/>
  <unicode hex="25C2"/>
  <note>
    Black_Left-Pointing_Small
  </note>
  <outline>
    <contour>
      <point x="334" y="146" type="line"/>
      <point x="352" y="157" type="line"/>
      <point x="343" y="551" type="line"/>
      <point x="325" y="561" type="line"/>
      <point x="18" y="355" type="line"/>
      <point x="34" y="324" type="line"/>
    </contour>
  </outline>
</glyph>
<glyph name="Black_Diamond" format="1">
  <advance width="680"/>
  <unicode hex="25C6"/>
  <note>
    uni25C6
  </note>
  <outline>
    <contour>
      <point x="332" y="34" type="line"/>
      <point x="373" y="46" type="line"/>
      <point x="626" y="328" type="line"/>
      <point x="635" y="371" type="line"/>
      <point x="349" y="667" type="line"/>
      <point x="308" y="654" type="line"/>
      <point x="52" y="368" type="line"/>
      <point x="45" y="327" type="line"/>
    </contour>
  </outline>
</glyph>
<glyph name="leftanglebracket_math" format="1">
  <advance width="248"/>
  <unicode hex="27E8"/>
  <outline>
    <contour>
      <point x="130" y="-76" type="line"/>
      <point x="197" y="-53" type="line"/>
      <point x="93" y="301" type="line"/>
      <point x="198" y="750" type="line"/>
      <point x="130" y="762" type="line"/>
      <point x="30" y="284" type="line"/>
    </contour>
  </outline>
</glyph>
<glyph name="rightanglebracket_math" format="1">
  <advance width="258"/>
  <unicode hex="27E9"/>
  <outline>
    <contour>
      <point x="118" y="-76" type="line"/>
      <point x="218" y="284" type="line"/>
      <point x="118" y="762" type="line"/>
      <point x="50" y="742" type="line"/>
      <point x="153" y="321" type="line"/>
      <point x="53" y="-49" type="line"/>
    </contour>
  </outline>
</glyph>
<glyph name="A.alt" format="1">
  <advance width="294"/>
  <outline>
    <contour>
      <point x="23" y="0" type="line"/>
      <point x="85" y="0" type="line"/>
      <point x="107" y="228" type="line"/>
      <point x="187" y="266" type="line"/>
      <point x="223" y="0" type="line"/>
      <point x="267" y="0" type="line"/>
      <point x="226" y="710" type="line"/>
      <point x="68" y="710" type="line"/>
    </contour>
    <contour>
      <point x="125" y="291" type="line"/>
      <point x="121" y="291"/>
      <point x="119" y="293"/>
      <point x="119" y="296" type="curve"/>
      <point x="119" y="648" type="line"/>
      <point x="119" y="653"/>
      <point x="121" y="657"/>
      <point x="125" y="658" type="curve"/>
      <point x="168" y="668" type="line"/>
      <point x="172" y="668"/>
      <point x="174" y="666"/>
      <point x="174" y="662" type="curve"/>
      <point x="168" y="303" type="line"/>
      <point x="168" y="299"/>
      <point x="166" y="298"/>
      <point x="162" y="297" type="curve"/>
    </contour>
    <contour>
      <point x="148" y="0" type="move" name="bottom"/>
    </contour>
    <contour>
      <point x="267" y="0" type="move" name="ogonek"/>
    </contour>
    <contour>
      <point x="146" y="710" type="move" name="top"/>
    </contour>
  </outline>
</glyph>
<glyph name="C.alt" format="1">
  <advance width="314"/>
  <outline>
    <contour>
      <point x="75" y="20" type="line"/>
      <point x="288" y="20" type="line"/>
      <point x="288" y="187" type="line"/>
      <point x="255" y="187" type="line"/>
      <point x="236" y="174" type="line"/>
      <point x="236" y="99" type="line"/>
      <point x="236" y="95"/>
      <point x="232" y="93"/>
      <point x="224" y="93" type="curve"/>
      <point x="125" y="93" type="line"/>
      <point x="121" y="93"/>
      <point x="119" y="95"/>
      <point x="119" y="99" type="curve"/>
      <point x="119" y="567" type="line" smooth="yes"/>
      <point x="119" y="600"/>
      <point x="120" y="630"/>
      <point x="152" y="630" type="curve"/>
      <point x="214" y="630" type="line"/>
      <point x="222" y="630"/>
      <point x="226" y="627"/>
      <point x="226" y="621" type="curve"/>
      <point x="226" y="528" type="line"/>
      <point x="272" y="528" type="line"/>
      <point x="288" y="689" type="line"/>
      <point x="134" y="709" type="line"/>
      <point x="130" y="709"/>
      <point x="125" y="710"/>
      <point x="121" y="710" type="curve"/>
      <point x="77" y="710"/>
      <point x="55" y="680"/>
      <point x="54" y="653" type="curve"/>
      <point x="34" y="62" type="line"/>
    </contour>
    <contour>
      <point x="167" y="0" type="move" name="bottom"/>
    </contour>
    <contour>
      <point x="175" y="710" type="move" name="top"/>
    </contour>
  </outline>
</glyph>
<glyph name="E_U" format="1">
  <advance width="499"/>
  <outline>
    <contour>
      <point x="264" y="140" type="line"/>
      <point x="406" y="140" type="line"/>
      <point x="425" y="140"/>
      <point x="449" y="161"/>
      <point x="449" y="180" type="curve"/>
      <point x="449" y="710" type="line"/>
      <point x="376" y="710" type="line"/>
      <point x="397" y="198" type="line"/>
      <point x="319" y="204" type="line"/>
      <point x="319" y="687" type="line"/>
      <point x="264" y="687" type="line"/>
    </contour>
    <contour>
      <point x="46" y="0" type="line"/>
      <point x="440" y="0" type="line"/>
      <point x="448" y="69" type="line"/>
      <point x="46" y="84" type="line"/>
    </contour>
    <contour>
      <point x="48" y="150" type="line"/>
      <point x="213" y="150" type="line"/>
      <point x="201" y="234" type="line"/>
      <point x="121" y="216" type="line"/>
      <point x="121" y="413" type="line"/>
      <point x="180" y="431" type="line"/>
      <point x="180" y="476" type="line"/>
      <point x="116" y="476" type="line"/>
      <point x="116" y="647" type="line"/>
      <point x="204" y="647" type="line"/>
      <point x="204" y="710" type="line"/>
      <point x="71" y="710" type="line"/>
    </contour>
  </outline>
</glyph>
<glyph name="Eng.alt" format="1">
  <advance width="319"/>
  <outline>
    <contour>
      <point x="139" y="-119" type="line"/>
      <point x="245" y="-119" type="line"/>
      <point x="288" y="-70" type="line"/>
      <point x="287" y="99" type="line"/>
      <point x="287" y="720" type="line"/>
      <point x="250" y="720" type="line"/>
      <point x="207" y="706" type="line"/>
      <point x="219" y="338" type="line"/>
      <point x="213" y="338" type="line"/>
      <point x="121" y="710" type="line"/>
      <point x="60" y="710" type="line"/>
      <point x="28" y="20" type="line"/>
      <point x="79" y="20" type="line"/>
      <point x="98" y="554" type="line"/>
      <point x="102" y="554" type="line"/>
      <point x="226" y="136" type="line"/>
      <point x="228" y="-46" type="line" smooth="yes"/>
      <point x="228" y="-51"/>
      <point x="226" y="-55"/>
      <point x="222" y="-55" type="curve"/>
      <point x="139" y="-64" type="line"/>
    </contour>
  </outline>
</glyph>
<glyph name="F_F.alt" format="1">
  <advance width="560"/>
  <outline>
    <contour>
      <point x="55" y="-20" type="line"/>
      <point x="134" y="-20" type="line"/>
      <point x="114" y="372" type="line"/>
      <point x="309" y="387" type="line"/>
      <point x="309" y="-20" type="line"/>
      <point x="388" y="-20" type="line"/>
      <point x="368" y="372" type="line"/>
      <point x="520" y="389" type="line"/>
      <point x="520" y="447" type="line"/>
      <point x="385" y="447" type="line"/>
      <point x="385" y="619" type="line"/>
      <point x="520" y="631" type="line"/>
      <point x="520" y="690" type="line"/>
      <point x="306" y="710" type="line"/>
      <point x="306" y="651" type="line"/>
      <point x="157" y="663" type="line"/>
      <point x="55" y="608" type="line"/>
    </contour>
    <contour>
      <point x="131" y="447" type="line"/>
      <point x="141" y="581" type="line"/>
      <point x="309" y="590" type="line"/>
      <point x="309" y="447" type="line"/>
    </contour>
  </outline>
</glyph>
<glyph name="H.alt" format="1">
  <advance width="313"/>
  <outline>
    <contour>
      <point x="40" y="0" type="line"/>
      <point x="114" y="0" type="line"/>
      <point x="114" y="327" type="line"/>
      <point x="200" y="310" type="line"/>
      <point x="229" y="0" type="line"/>
      <point x="273" y="0" type="line"/>
      <point x="273" y="710" type="line"/>
      <point x="200" y="710" type="line"/>
      <point x="200" y="400" type="line"/>
      <point x="101" y="395" type="line"/>
      <point x="112" y="710" type="line"/>
      <point x="40" y="710" type="line"/>
    </contour>
    <contour>
      <point x="153" y="0" type="move" name="bottom"/>
    </contour>
    <contour>
      <point x="156" y="710" type="move" name="top"/>
    </contour>
  </outline>
</glyph>
<glyph name="L_A_S" format="1">
  <advance width="643"/>
  <outline>
    <contour>
      <point x="338" y="140" type="line"/>
      <point x="386" y="140" type="line"/>
      <point x="386" y="710" type="line"/>
      <point x="223" y="710" type="line"/>
      <point x="191" y="255" type="line"/>
      <point x="233" y="250" type="line"/>
      <point x="266" y="423" type="line"/>
      <point x="312" y="423" type="line"/>
    </contour>
    <contour>
      <point x="50" y="0" type="line"/>
      <point x="602" y="25" type="line"/>
      <point x="595" y="84" type="line"/>
      <point x="50" y="84" type="line"/>
    </contour>
    <contour>
      <point x="49" y="140" type="line"/>
      <point x="241" y="140" type="line"/>
      <point x="241" y="204" type="line"/>
      <point x="110" y="217" type="line"/>
      <point x="131" y="710" type="line"/>
      <point x="49" y="710" type="line"/>
    </contour>
    <contour>
      <point x="282" y="460" type="line"/>
      <point x="278" y="460"/>
      <point x="276" y="462"/>
      <point x="276" y="465" type="curve"/>
      <point x="276" y="677" type="line"/>
      <point x="276" y="681"/>
      <point x="278" y="683"/>
      <point x="282" y="683" type="curve"/>
      <point x="322" y="683" type="line"/>
      <point x="326" y="683"/>
      <point x="328" y="681"/>
      <point x="328" y="677" type="curve"/>
      <point x="328" y="466" type="line"/>
      <point x="328" y="462"/>
      <point x="326" y="460"/>
      <point x="322" y="460" type="curve"/>
    </contour>
    <contour>
      <point x="434" y="140" type="line"/>
      <point x="537" y="140" type="line"/>
      <point x="566" y="140"/>
      <point x="601" y="172"/>
      <point x="601" y="200" type="curve"/>
      <point x="601" y="424" type="line"/>
      <point x="496" y="457" type="line"/>
      <point x="484" y="647" type="line"/>
      <point x="601" y="666" type="line"/>
      <point x="601" y="710" type="line"/>
      <point x="474" y="710" type="line"/>
      <point x="453" y="710"/>
      <point x="434" y="684"/>
      <point x="434" y="663" type="curve"/>
      <point x="434" y="409" type="line"/>
      <point x="533" y="379" type="line"/>
      <point x="547" y="203" type="line"/>
      <point x="434" y="203" type="line"/>
    </contour>
  </outline>
</glyph>
<glyph name="Lslash.alt" format="1">
  <advance width="287"/>
  <outline>
    <contour>
      <point x="50" y="0" type="line"/>
      <point x="252" y="0" type="line"/>
      <point x="252" y="69" type="line"/>
      <point x="139" y="82" type="line"/>
      <point x="124" y="105" type="line"/>
      <point x="124" y="368" type="line"/>
      <point x="218" y="425" type="line"/>
      <point x="193" y="471" type="line"/>
      <point x="124" y="432" type="line"/>
      <point x="124" y="710" type="line"/>
      <point x="50" y="710" type="line"/>
      <point x="50" y="390" type="line"/>
      <point x="-33" y="344" type="line"/>
      <point x="-7" y="290" type="line"/>
      <point x="50" y="324" type="line"/>
    </contour>
  </outline>
</glyph>
<glyph name="Oslash.alt" format="1">
  <advance width="303"/>
  <outline>
    <contour>
      <point x="61" y="-88" type="line"/>
      <point x="84" y="0" type="line"/>
      <point x="203" y="0" type="line" smooth="yes"/>
      <point x="243" y="0"/>
      <point x="257" y="14"/>
      <point x="257" y="37" type="curve"/>
      <point x="257" y="661" type="line"/>
      <point x="287" y="776" type="line"/>
      <point x="251" y="789" type="line"/>
      <point x="226" y="699" type="line"/>
      <point x="202" y="706"/>
      <point x="165" y="710"/>
      <point x="105" y="710" type="curve" smooth="yes"/>
      <point x="68" y="710"/>
      <point x="44" y="696"/>
      <point x="44" y="685" type="curve" smooth="yes"/>
      <point x="53" y="58" type="line"/>
      <point x="18" y="-72" type="line"/>
    </contour>
    <contour>
      <point x="127" y="52" type="line"/>
      <point x="118" y="61" type="line"/>
      <point x="116" y="122" type="line"/>
      <point x="193" y="419" type="line"/>
      <point x="200" y="77" type="line"/>
    </contour>
    <contour>
      <point x="111" y="272" type="line"/>
      <point x="99" y="643" type="line" smooth="yes"/>
      <point x="99" y="646"/>
      <point x="102" y="648"/>
      <point x="108" y="649" type="curve"/>
      <point x="181" y="639" type="line"/>
      <point x="190" y="633" type="line"/>
      <point x="190" y="568" type="line"/>
    </contour>
  </outline>
</glyph>
<glyph name="Schwa.alt" format="1">
  <advance width="312"/>
  <outline>
    <contour>
      <point x="113" y="0" type="curve" smooth="yes"/>
      <point x="263" y="0" type="line"/>
      <point x="285" y="656" type="line"/>
      <point x="284" y="687"/>
      <point x="265" y="710"/>
      <point x="236" y="710" type="curve" smooth="yes"/>
      <point x="36" y="710" type="line"/>
      <point x="36" y="668" type="line"/>
      <point x="210" y="630" type="line"/>
      <point x="202" y="387" type="line"/>
      <point x="43" y="387" type="line"/>
      <point x="43" y="58" type="line" smooth="yes"/>
      <point x="43" y="22"/>
      <point x="78" y="0"/>
    </contour>
    <contour>
      <point x="126" y="94" type="line" smooth="yes"/>
      <point x="118" y="94"/>
      <point x="106" y="98"/>
      <point x="106" y="106" type="curve" smooth="yes"/>
      <point x="106" y="317" type="line"/>
      <point x="200" y="329" type="line"/>
      <point x="193" y="112" type="line" smooth="yes"/>
      <point x="193" y="103"/>
      <point x="181" y="94"/>
      <point x="172" y="94" type="curve"/>
    </contour>
  </outline>
</glyph>
<glyph name="T.alt" format="1">
  <advance width="261"/>
  <outline>
    <contour>
      <point x="72" y="0" type="line"/>
      <point x="157" y="0" type="line"/>
      <point x="157" y="633" type="line"/>
      <point x="245" y="633" type="line"/>
      <point x="240" y="696" type="line"/>
      <point x="33" y="710" type="line"/>
      <point x="20" y="639" type="line"/>
      <point x="92" y="615" type="line"/>
    </contour>
    <contour>
      <point x="121" y="0" type="move" name="bottom"/>
    </contour>
    <contour>
      <point x="134" y="710" type="move" name="top"/>
    </contour>
  </outline>
</glyph>
<glyph name="T_H_E" format="1">
  <advance width="670"/>
  <outline>
    <contour>
      <point x="99" y="140" type="line"/>
      <point x="160" y="140" type="line"/>
      <point x="160" y="658" type="line"/>
      <point x="290" y="658" type="line"/>
      <point x="290" y="710" type="line"/>
      <point x="55" y="710" type="line"/>
      <point x="45" y="677" type="line"/>
      <point x="99" y="665" type="line"/>
    </contour>
    <contour>
      <point x="77" y="0" type="line"/>
      <point x="632" y="0" type="line"/>
      <point x="632" y="84" type="line"/>
      <point x="70" y="65" type="line"/>
    </contour>
    <contour>
      <point x="371" y="120" type="line"/>
      <point x="431" y="120" type="line"/>
      <point x="410" y="624" type="line"/>
      <point x="425" y="648" type="line"/>
      <point x="425" y="690" type="line"/>
      <point x="343" y="690" type="line"/>
      <point x="343" y="505" type="line"/>
      <point x="289" y="490" type="line"/>
      <point x="289" y="610" type="line"/>
      <point x="213" y="610" type="line"/>
      <point x="236" y="140" type="line"/>
      <point x="301" y="140" type="line"/>
      <point x="290" y="422" type="line"/>
      <point x="350" y="431" type="line"/>
    </contour>
    <contour>
      <point x="465" y="150" type="line"/>
      <point x="630" y="150" type="line"/>
      <point x="618" y="234" type="line"/>
      <point x="538" y="216" type="line"/>
      <point x="538" y="413" type="line"/>
      <point x="597" y="431" type="line"/>
      <point x="597" y="476" type="line"/>
      <point x="533" y="476" type="line"/>
      <point x="533" y="647" type="line"/>
      <point x="621" y="647" type="line"/>
      <point x="621" y="710" type="line"/>
      <point x="488" y="710" type="line"/>
    </contour>
  </outline>
</glyph>
<glyph name="Tbar.alt" format="1">
  <advance width="275"/>
  <outline>
    <contour>
      <point x="77" y="0" type="line"/>
      <point x="162" y="0" type="line"/>
      <point x="162" y="433" type="line"/>
      <point x="272" y="437" type="line"/>
      <point x="272" y="492" type="line"/>
      <point x="162" y="492" type="line"/>
      <point x="162" y="633" type="line"/>
      <point x="250" y="633" type="line"/>
      <point x="245" y="696" type="line"/>
      <point x="38" y="710" type="line"/>
      <point x="25" y="639" type="line"/>
      <point x="97" y="615" type="line"/>
      <point x="93" y="492" type="line"/>
      <point x="4" y="492" type="line"/>
      <point x="7" y="428" type="line"/>
      <point x="91" y="431" type="line"/>
    </contour>
  </outline>
</glyph>
<glyph name="U.alt" format="1">
  <advance width="289"/>
  <outline>
    <contour>
      <point x="28" y="-20" type="line"/>
      <point x="258" y="-20" type="line"/>
      <point x="258" y="683" type="line"/>
      <point x="188" y="687" type="line"/>
      <point x="188" y="68" type="line"/>
      <point x="104" y="62" type="line"/>
      <point x="125" y="700" type="line"/>
      <point x="51" y="700" type="line"/>
    </contour>
    <contour>
      <point x="143" y="0" type="move" name="bottom"/>
    </contour>
    <contour>
      <point x="192" y="0" type="move" name="ogonek"/>
    </contour>
    <contour>
      <point x="157" y="710" type="move" name="top"/>
    </contour>
    <contour>
      <point x="258" y="683" type="move" name="topright"/>
    </contour>
  </outline>
</glyph>
<glyph name="X.alt" format="1">
  <advance width="300"/>
  <outline>
    <contour>
      <point x="202" y="-11" type="line"/>
      <point x="298" y="-11" type="line"/>
      <point x="209" y="343" type="line"/>
      <point x="280" y="690" type="line"/>
      <point x="213" y="690" type="line"/>
      <point x="176" y="399" type="line"/>
      <point x="141" y="390" type="line"/>
      <point x="101" y="710" type="line"/>
      <point x="23" y="710" type="line"/>
      <point x="87" y="386" type="line"/>
      <point x="9" y="0" type="line"/>
      <point x="87" y="0" type="line"/>
      <point x="131" y="324" type="line"/>
      <point x="159" y="339" type="line"/>
    </contour>
  </outline>
</glyph>
<glyph name="Z.alt" format="1">
  <advance width="282"/>
  <outline>
    <contour>
      <point x="38" y="0" type="line"/>
      <point x="262" y="0" type="line"/>
      <point x="262" y="47" type="line"/>
      <point x="128" y="56" type="line"/>
      <point x="242" y="710" type="line"/>
      <point x="36" y="710" type="line"/>
      <point x="36" y="646" type="line"/>
      <point x="164" y="662" type="line"/>
      <point x="20" y="33" type="line"/>
    </contour>
    <contour>
      <point x="140" y="0" type="move" name="bottom"/>
    </contour>
    <contour>
      <point x="147" y="710" type="move" name="top"/>
    </contour>
  </outline>
</glyph>
<glyph name="a.alt" format="1">
  <advance width="278"/>
  <outline>
    <contour>
      <point x="78" y="0" type="line"/>
      <point x="233" y="0" type="line"/>
      <point x="233" y="549" type="line"/>
      <point x="195" y="582" type="line"/>
      <point x="38" y="582" type="line"/>
      <point x="41" y="460" type="line"/>
      <point x="81" y="460" type="line"/>
      <point x="85" y="524" type="line"/>
      <point x="86" y="529"/>
      <point x="89" y="532"/>
      <point x="96" y="532" type="curve"/>
      <point x="157" y="525" type="line"/>
      <point x="163" y="525"/>
      <point x="165" y="521"/>
      <point x="165" y="517" type="curve"/>
      <point x="169" y="324" type="line"/>
      <point x="76" y="324" type="line"/>
      <point x="35" y="292" type="line"/>
      <point x="35" y="38" type="line"/>
    </contour>
    <contour>
      <point x="111" y="58" type="line"/>
      <point x="106" y="58"/>
      <point x="102" y="61"/>
      <point x="102" y="67" type="curve"/>
      <point x="102" y="247" type="line"/>
      <point x="102" y="255"/>
      <point x="106" y="257"/>
      <point x="111" y="258" type="curve"/>
      <point x="167" y="271" type="line"/>
      <point x="172" y="67" type="line"/>
      <point x="172" y="61"/>
      <point x="172" y="58"/>
      <point x="163" y="58" type="curve"/>
    </contour>
    <contour>
      <point x="140" y="0" type="move" name="bottom"/>
    </contour>
    <contour>
      <point x="233" y="0" type="move" name="ogonek"/>
    </contour>
    <contour>
      <point x="136" y="582" type="move" name="top"/>
    </contour>
  </outline>
</glyph>
<glyph name="brevebelowcomb.case" format="1">
  <advance width="213"/>
  <outline>
    <contour>
      <point x="49" y="-170" type="line"/>
      <point x="174" y="-170" type="line"/>
      <point x="213" y="-131" type="line"/>
      <point x="213" y="-55" type="line"/>
      <point x="167" y="-59" type="line"/>
      <point x="170" y="-125" type="line"/>
      <point x="60" y="-120" type="line"/>
      <point x="48" y="-109" type="line"/>
      <point x="53" y="-61" type="line"/>
      <point x="0" y="-61" type="line"/>
      <point x="4" y="-142" type="line"/>
    </contour>
    <contour>
      <point x="107" y="0" type="move" name="_bottom"/>
    </contour>
    <contour>
      <point x="107" y="-170" type="move" name="bottom"/>
    </contour>
  </outline>
</glyph>
<glyph name="brevecomb.case" format="1">
  <advance width="193"/>
  <outline>
    <contour>
      <point x="49" y="646" type="line"/>
      <point x="154" y="646" type="line"/>
      <point x="193" y="685" type="line"/>
      <point x="193" y="748" type="line"/>
      <point x="147" y="750" type="line"/>
      <point x="150" y="694" type="line"/>
      <point x="60" y="699" type="line"/>
      <point x="48" y="710" type="line"/>
      <point x="53" y="750" type="line"/>
      <point x="0" y="750" type="line"/>
      <point x="4" y="674" type="line"/>
    </contour>
    <contour>
      <point x="98" y="582" type="move" name="_top"/>
    </contour>
    <contour>
      <point x="98" y="712" type="move" name="top"/>
    </contour>
  </outline>
</glyph>
<glyph name="caroncomb.case" format="1">
  <advance width="218"/>
  <outline>
    <contour>
      <point x="86" y="631" type="line"/>
      <point x="132" y="633" type="line"/>
      <point x="218" y="713" type="line"/>
      <point x="194" y="747" type="line"/>
      <point x="112" y="690" type="line"/>
      <point x="27" y="747" type="line"/>
      <point x="0" y="713" type="line"/>
    </contour>
    <contour>
      <point x="109" y="582" type="move" name="_top"/>
    </contour>
    <contour>
      <point x="109" y="752" type="move" name="top"/>
    </contour>
  </outline>
</glyph>
<glyph name="d.alt" format="1">
  <advance width="301"/>
  <outline>
    <contour>
      <point x="98" y="0" type="line"/>
      <point x="273" y="0" type="line"/>
      <point x="273" y="42" type="line"/>
      <point x="245" y="62" type="line"/>
      <point x="251" y="721" type="line"/>
      <point x="179" y="721" type="line"/>
      <point x="180" y="582" type="line"/>
      <point x="87" y="582" type="line"/>
      <point x="45" y="528" type="line"/>
      <point x="47" y="36" type="line"/>
    </contour>
    <contour>
      <point x="117" y="63" type="line" smooth="yes"/>
      <point x="108" y="63"/>
      <point x="108" y="66"/>
      <point x="108" y="72" type="curve"/>
      <point x="118" y="514" type="line" smooth="yes"/>
      <point x="118" y="518"/>
      <point x="118" y="520"/>
      <point x="127" y="520" type="curve" smooth="yes"/>
      <point x="169" y="520" type="line" smooth="yes"/>
      <point x="178" y="520"/>
      <point x="178" y="518"/>
      <point x="178" y="514" type="curve" smooth="yes"/>
      <point x="178" y="72" type="line" smooth="yes"/>
      <point x="178" y="66"/>
      <point x="174" y="63"/>
      <point x="169" y="63" type="curve" smooth="yes"/>
    </contour>
    <contour>
      <point x="156" y="0" type="move" name="bottom"/>
    </contour>
    <contour>
      <point x="141" y="582" type="move" name="top"/>
    </contour>
  </outline>
</glyph>
<glyph name="dblgravecomb.case" format="1">
  <advance width="250"/>
  <outline>
    <contour>
      <point x="238" y="632" type="line"/>
      <point x="260" y="662" type="line"/>
      <point x="165" y="741" type="line"/>
      <point x="130" y="686" type="line"/>
    </contour>
    <contour>
      <point x="108" y="632" type="line"/>
      <point x="130" y="662" type="line"/>
      <point x="35" y="741" type="line"/>
      <point x="0" y="686" type="line"/>
    </contour>
    <contour>
      <point x="139" y="582" type="move" name="_top"/>
    </contour>
    <contour>
      <point x="139" y="730" type="move" name="top"/>
    </contour>
  </outline>
</glyph>
<glyph name="dieresiscomb.case" format="1">
  <advance width="219"/>
  <outline>
    <contour>
      <point x="0" y="647" type="line"/>
      <point x="79" y="647" type="line"/>
      <point x="83" y="730" type="line"/>
      <point x="0" y="727" type="line"/>
    </contour>
    <contour>
      <point x="143" y="647" type="line"/>
      <point x="219" y="650" type="line"/>
      <point x="219" y="730" type="line"/>
      <point x="140" y="730" type="line"/>
    </contour>
    <contour>
      <point x="110" y="582" type="move" name="_top"/>
    </contour>
    <contour>
      <point x="111" y="710" type="move" name="top"/>
    </contour>
  </outline>
</glyph>
<glyph name="dotbelowcomb.case" format="1">
  <advance width="93"/>
  <outline>
    <contour>
      <point x="4" y="-154" type="line"/>
      <point x="93" y="-151" type="line"/>
      <point x="93" y="-56" type="line"/>
      <point x="0" y="-56" type="line"/>
    </contour>
    <contour>
      <point x="49" y="0" type="move" name="_bottom"/>
    </contour>
    <contour>
      <point x="49" y="-145" type="move" name="bottom"/>
    </contour>
  </outline>
</glyph>
<glyph name="eight.ss01" format="1">
  <advance width="339"/>
  <outline>
    <contour>
      <point x="122" y="0" type="curve" smooth="yes"/>
      <point x="221" y="0" type="line" smooth="yes"/>
      <point x="256" y="0"/>
      <point x="295" y="24"/>
      <point x="294" y="69" type="curve"/>
      <point x="295" y="325" type="line"/>
      <point x="225" y="384" type="line"/>
      <point x="285" y="438" type="line"/>
      <point x="285" y="655" type="line" smooth="yes"/>
      <point x="285" y="680"/>
      <point x="255" y="710"/>
      <point x="217" y="710" type="curve"/>
      <point x="125" y="710" type="line" smooth="yes"/>
      <point x="87" y="710"/>
      <point x="57" y="680"/>
      <point x="57" y="655" type="curve" smooth="yes"/>
      <point x="57" y="431" type="line"/>
      <point x="127" y="375" type="line"/>
      <point x="48" y="307" type="line"/>
      <point x="49" y="69" type="line"/>
      <point x="48" y="24"/>
      <point x="87" y="0"/>
    </contour>
    <contour>
      <point x="134" y="74" type="line"/>
      <point x="120" y="86" type="line"/>
      <point x="117" y="287" type="line"/>
      <point x="173" y="338" type="line"/>
      <point x="223" y="293" type="line"/>
      <point x="220" y="84" type="line"/>
      <point x="208" y="74" type="line"/>
    </contour>
    <contour>
      <point x="178" y="423" type="line"/>
      <point x="123" y="472" type="line"/>
      <point x="128" y="634" type="line"/>
      <point x="140" y="646" type="line"/>
      <point x="200" y="646" type="line"/>
      <point x="212" y="634" type="line"/>
      <point x="217" y="462" type="line"/>
    </contour>
  </outline>
</glyph>
<glyph name="eth.alt" format="1">
  <advance width="292"/>
  <outline>
    <contour>
      <point x="45" y="0" type="line"/>
      <point x="166" y="0" type="line" smooth="yes"/>
      <point x="222" y="0"/>
      <point x="240" y="17"/>
      <point x="240" y="56" type="curve" smooth="yes"/>
      <point x="246" y="532" type="line" smooth="yes"/>
      <point x="246" y="566"/>
      <point x="221" y="669"/>
      <point x="209" y="721" type="curve"/>
      <point x="139" y="721" type="line"/>
      <point x="176" y="585" type="line"/>
      <point x="108" y="585"/>
      <point x="70" y="577"/>
      <point x="45" y="561" type="curve"/>
    </contour>
    <contour>
      <point x="118" y="51" type="line"/>
      <point x="109" y="60" type="line"/>
      <point x="112" y="521" type="line"/>
      <point x="121" y="527" type="line"/>
      <point x="175" y="524" type="line"/>
      <point x="184" y="523"/>
      <point x="184" y="521"/>
      <point x="184" y="518" type="curve" smooth="yes"/>
      <point x="178" y="57" type="line"/>
    </contour>
    <component base="baraccent" xScale="0.9925" xyScale="0.1219" yScale="0.9925" yxScale="-0.1219" xOffset="89" yOffset="274"/>
  </outline>
</glyph>
<glyph name="f_f" format="1">
  <advance width="386"/>
  <outline>
    <contour>
      <point x="42" y="0" type="line"/>
      <point x="113" y="0" type="line"/>
      <point x="108" y="522" type="line"/>
      <point x="237" y="528" type="line"/>
      <point x="235" y="0" type="line"/>
      <point x="306" y="0" type="line"/>
      <point x="301" y="522" type="line"/>
      <point x="394" y="529" type="line"/>
      <point x="394" y="582" type="line"/>
      <point x="300" y="582" type="line"/>
      <point x="302" y="645" type="line"/>
      <point x="416" y="655" type="line"/>
      <point x="416" y="710" type="line"/>
      <point x="278" y="710" type="line" smooth="yes"/>
      <point x="252" y="710"/>
      <point x="235" y="692"/>
      <point x="235" y="661" type="curve" smooth="yes"/>
      <point x="236" y="582" type="line"/>
      <point x="107" y="582" type="line"/>
      <point x="109" y="645" type="line"/>
      <point x="203" y="655" type="line"/>
      <point x="203" y="710" type="line"/>
      <point x="85" y="710" type="line" smooth="yes"/>
      <point x="59" y="710"/>
      <point x="42" y="692"/>
      <point x="42" y="661" type="curve" smooth="yes"/>
      <point x="43" y="582" type="line"/>
      <point x="3" y="582" type="line"/>
      <point x="3" y="522" type="line"/>
      <point x="44" y="522" type="line"/>
    </contour>
  </outline>
</glyph>
<glyph name="germandbls.alt" format="1">
  <advance width="401"/>
  <outline>
    <contour>
      <point x="-57" y="-129" type="line"/>
      <point x="81" y="-129" type="line"/>
      <point x="124" y="-80" type="line"/>
      <point x="108" y="637" type="line"/>
      <point x="108" y="642"/>
      <point x="110" y="646"/>
      <point x="114" y="646" type="curve"/>
      <point x="250" y="653" type="line"/>
      <point x="162" y="389" type="line"/>
      <point x="193" y="343" type="line"/>
      <point x="297" y="264" type="line"/>
      <point x="284" y="58" type="line"/>
      <point x="240" y="59" type="line"/>
      <point x="220" y="139" type="line"/>
      <point x="186" y="139" type="line"/>
      <point x="193" y="0" type="line"/>
      <point x="289" y="0" type="line" smooth="yes"/>
      <point x="311" y="0"/>
      <point x="349" y="26"/>
      <point x="349" y="49" type="curve"/>
      <point x="361" y="324" type="line"/>
      <point x="230" y="408" type="line"/>
      <point x="327" y="604" type="line"/>
      <point x="261" y="710" type="line"/>
      <point x="85" y="710" type="line"/>
      <point x="42" y="661" type="line"/>
      <point x="52" y="-56" type="line" smooth="yes"/>
      <point x="52" y="-61"/>
      <point x="50" y="-65"/>
      <point x="46" y="-65" type="curve"/>
      <point x="-57" y="-74" type="line"/>
    </contour>
  </outline>
</glyph>
<glyph name="kgreenlandic.alt" format="1">
  <advance width="273"/>
  <outline>
    <contour>
      <point x="61" y="0" type="line"/>
      <point x="116" y="0" type="line"/>
      <point x="116" y="267" type="line"/>
      <point x="125" y="274" type="line"/>
      <point x="177" y="233" type="line"/>
      <point x="177" y="0" type="line"/>
      <point x="243" y="0" type="line"/>
      <point x="233" y="274" type="line"/>
      <point x="177" y="306" type="line"/>
      <point x="216" y="333" type="line"/>
      <point x="251" y="581" type="line"/>
      <point x="180" y="581" type="line"/>
      <point x="172" y="353" type="line"/>
      <point x="127" y="324" type="line"/>
      <point x="106" y="336" type="line"/>
      <point x="106" y="582" type="line"/>
      <point x="42" y="582" type="line"/>
    </contour>
  </outline>
</glyph>
<glyph name="l.alt" format="1">
  <advance width="160"/>
  <outline>
    <contour>
      <point x="49" y="-25" type="line"/>
      <point x="143" y="-25" type="line"/>
      <point x="144" y="20" type="line"/>
      <point x="111" y="33" type="line"/>
      <point x="119" y="721" type="line"/>
      <point x="45" y="721" type="line"/>
    </contour>
    <contour>
      <point x="96" y="0" type="move" name="bottom"/>
    </contour>
    <contour>
      <point x="162" y="381" type="move" name="center"/>
    </contour>
    <contour>
      <point x="79" y="710" type="move" name="top"/>
    </contour>
    <contour>
      <point x="140" y="582" type="move" name="topright"/>
    </contour>
  </outline>
</glyph>
<glyph name="longs.alt" format="1">
  <advance width="292"/>
  <outline>
    <contour>
      <point x="44" y="-20" type="line"/>
      <point x="103" y="-20" type="line"/>
      <point x="99" y="604" type="line"/>
      <point x="114" y="619" type="line"/>
      <point x="248" y="638" type="line"/>
      <point x="258" y="657" type="line"/>
      <point x="258" y="700" type="line"/>
      <point x="80" y="708" type="line" smooth="yes"/>
      <point x="64" y="709"/>
      <point x="44" y="702"/>
      <point x="44" y="687" type="curve" smooth="yes"/>
      <point x="37" y="185" type="line"/>
    </contour>
  </outline>
</glyph>
<glyph name="macroncomb.case" format="1">
  <advance width="208"/>
  <outline>
    <contour>
      <point x="3" y="655" type="line"/>
      <point x="208" y="664" type="line"/>
      <point x="208" y="714" type="line"/>
      <point x="0" y="714" type="line"/>
    </contour>
    <contour>
      <point x="104" y="582" type="move" name="_top"/>
    </contour>
    <contour>
      <point x="104" y="727" type="move" name="top"/>
    </contour>
  </outline>
</glyph>
<glyph name="oslash.alt" format="1">
  <advance width="291"/>
  <outline>
    <contour>
      <point x="61" y="-63" type="line"/>
      <point x="81.935" y="4.146" type="line"/>
      <point x="92.346" y="1.345"/>
      <point x="105.249" y="0"/>
      <point x="121" y="0" type="curve" smooth="yes"/>
      <point x="239" y="0" type="line"/>
      <point x="245.91" y="530.075" type="line"/>
      <point x="278" y="633" type="line"/>
      <point x="241" y="649" type="line"/>
      <point x="217.686" y="576.664" type="line"/>
      <point x="207.066" y="581.944"/>
      <point x="194.115" y="585"/>
      <point x="180" y="585" type="curve" smooth="yes"/>
      <point x="109" y="585"/>
      <point x="70" y="577"/>
      <point x="45" y="561" type="curve"/>
      <point x="45" y="56" type="line"/>
      <point x="45.818" y="43.412" type="line"/>
      <point x="17" y="-46" type="line"/>
    </contour>
    <contour>
      <point x="169" y="51" type="line"/>
      <point x="106" y="57" type="line"/>
      <point x="106.328" y="82.385" type="line"/>
      <point x="181.45" y="323.327" type="line"/>
      <point x="178" y="60" type="line"/>
    </contour>
    <contour>
      <point x="108.332" y="237.375" type="line"/>
      <point x="112" y="521" type="line"/>
      <point x="121" y="527" type="line"/>
      <point x="175" y="524" type="line"/>
      <point x="184" y="523"/>
      <point x="184" y="521"/>
      <point x="184" y="518" type="curve" smooth="yes"/>
      <point x="183.374" y="470.205" type="line"/>
    </contour>
    <contour>
      <point x="143" y="0" type="move" name="bottom"/>
    </contour>
    <contour>
      <point x="151" y="582" type="move" name="top"/>
    </contour>
  </outline>
</glyph>
<glyph name="periodcentered.loclCAT.case" format="1">
  <advance width="216"/>
  <outline>
    <contour>
      <point x="61" y="321" type="line"/>
      <point x="153" y="321" type="line"/>
      <point x="157" y="417" type="line"/>
      <point x="61" y="413" type="line"/>
    </contour>
    <contour>
      <point x="108" y="369" type="move" name="_center"/>
    </contour>
  </outline>
</glyph>
<glyph name="periodcentered.loclCAT" format="1">
  <advance width="168"/>
  <outline>
    <contour>
      <point x="50" y="333" type="line"/>
      <point x="118" y="331" type="line"/>
      <point x="118" y="403" type="line"/>
      <point x="51" y="406" type="line"/>
    </contour>
    <contour>
      <point x="83" y="369" type="move" name="_center"/>
    </contour>
  </outline>
</glyph>
<glyph name="quotesingle.loclGUA" format="1">
  <advance width="143"/>
  <outline>
    <contour>
      <point x="37" y="462" type="line"/>
      <point x="89" y="462" type="line"/>
      <point x="113" y="723" type="line"/>
      <point x="30" y="710" type="line"/>
      <point x="50" y="595" type="line"/>
    </contour>
  </outline>
</glyph>
<glyph name="r.alt" format="1">
  <advance width="235"/>
  <outline>
    <contour>
      <point x="51" y="0" type="line"/>
      <point x="117" y="0" type="line"/>
      <point x="104" y="523" type="line"/>
      <point x="159" y="522" type="line"/>
      <point x="168" y="522"/>
      <point x="177" y="440"/>
      <point x="177" y="434" type="curve"/>
      <point x="220" y="434" type="line"/>
      <point x="218" y="582" type="line"/>
      <point x="30" y="582" type="line"/>
      <point x="30" y="534" type="line"/>
      <point x="51" y="522" type="line"/>
    </contour>
    <contour>
      <point x="82" y="0" type="move" name="bottom"/>
    </contour>
    <contour>
      <point x="127" y="582" type="move" name="top"/>
    </contour>
  </outline>
</glyph>
<glyph name="u.alt" format="1">
  <advance width="292"/>
  <outline>
    <contour>
      <point x="104" y="0" type="curve"/>
      <point x="104" y="0"/>
      <point x="262" y="0"/>
      <point x="262" y="0" type="curve"/>
      <point x="262" y="44" type="line"/>
      <point x="244" y="59" type="line"/>
      <point x="247" y="582" type="line"/>
      <point x="176" y="582" type="line"/>
      <point x="180" y="66" type="line"/>
      <point x="175" y="58" type="line"/>
      <point x="116" y="60" type="line"/>
      <point x="107" y="61"/>
      <point x="107" y="63"/>
      <point x="107" y="66" type="curve" smooth="yes"/>
      <point x="113" y="582" type="line"/>
      <point x="46" y="582" type="line"/>
      <point x="38" y="47" type="line" smooth="yes"/>
      <point x="38" y="20"/>
      <point x="67" y="0"/>
    </contour>
    <contour>
      <point x="147" y="0" type="move" name="bottom"/>
    </contour>
    <contour>
      <point x="242" y="0" type="move" name="ogonek"/>
    </contour>
    <contour>
      <point x="151" y="582" type="move" name="top"/>
    </contour>
    <contour>
      <point x="227" y="582" type="move" name="topright"/>
    </contour>
  </outline>
</glyph>
<glyph name="x.alt" format="1">
  <advance width="272"/>
  <outline>
    <contour>
      <point x="12" y="0" type="line"/>
      <point x="81" y="0" type="line"/>
      <point x="122" y="265" type="line"/>
      <point x="135" y="277" type="line"/>
      <point x="176" y="0" type="line"/>
      <point x="260" y="0" type="line"/>
      <point x="187" y="281" type="line"/>
      <point x="245" y="582" type="line"/>
      <point x="185" y="582" type="line"/>
      <point x="149" y="327" type="line"/>
      <point x="130" y="319" type="line"/>
      <point x="93" y="582" type="line"/>
      <point x="24" y="582" type="line"/>
      <point x="76" y="316" type="line"/>
    </contour>
  </outline>
</glyph>
<glyph name="y.loclGUA" format="1">
  <advance width="298"/>
  <outline>
    <contour>
      <point x="56" y="-129" type="line"/>
      <point x="210" y="-129" type="line"/>
      <point x="253" y="-89" type="line"/>
      <point x="253" y="582" type="line"/>
      <point x="212" y="582" type="line"/>
      <point x="182" y="558" type="line"/>
      <point x="192" y="87" type="line" smooth="yes"/>
      <point x="192" y="81"/>
      <point x="192" y="78"/>
      <point x="183" y="78" type="curve" smooth="yes"/>
      <point x="121" y="78" type="line" smooth="yes"/>
      <point x="116" y="78"/>
      <point x="112" y="78"/>
      <point x="112" y="87" type="curve" smooth="yes"/>
      <point x="112" y="582" type="line"/>
      <point x="45" y="582" type="line"/>
      <point x="45" y="52" type="line"/>
      <point x="88" y="20" type="line"/>
      <point x="192" y="20" type="line"/>
      <point x="192" y="-67" type="line"/>
      <point x="56" y="-77" type="line"/>
    </contour>
    <contour>
      <point x="147" y="-100" type="move" name="bottom"/>
    </contour>
    <contour>
      <point x="149" y="582" type="move" name="top"/>
    </contour>
  </outline>
</glyph>
